%TF.GenerationSoftware,KiCad,Pcbnew,10.0.3*%
%TF.CreationDate,2026-06-09T09:31:25-07:00*%
%TF.ProjectId,SchindlerRFBoard_V1,53636869-6e64-46c6-9572-5246426f6172,rev?*%
%TF.SameCoordinates,Original*%
%TF.FileFunction,AssemblyDrawing,Top*%
%FSLAX46Y46*%
G04 Gerber Fmt 4.6, Leading zero omitted, Abs format (unit mm)*
G04 Created by KiCad (PCBNEW 10.0.3) date 2026-06-09 09:31:25*
%MOMM*%
%LPD*%
G01*
G04 APERTURE LIST*
%ADD10C,0.080000*%
%ADD11C,0.114000*%
%ADD12C,0.090000*%
%ADD13C,0.150000*%
%ADD14C,0.120000*%
%ADD15C,0.100000*%
%ADD16C,0.025400*%
G04 APERTURE END LIST*
D10*
X91916666Y-120429530D02*
X91892857Y-120453340D01*
X91892857Y-120453340D02*
X91821428Y-120477149D01*
X91821428Y-120477149D02*
X91773809Y-120477149D01*
X91773809Y-120477149D02*
X91702381Y-120453340D01*
X91702381Y-120453340D02*
X91654762Y-120405720D01*
X91654762Y-120405720D02*
X91630952Y-120358101D01*
X91630952Y-120358101D02*
X91607143Y-120262863D01*
X91607143Y-120262863D02*
X91607143Y-120191435D01*
X91607143Y-120191435D02*
X91630952Y-120096197D01*
X91630952Y-120096197D02*
X91654762Y-120048578D01*
X91654762Y-120048578D02*
X91702381Y-120000959D01*
X91702381Y-120000959D02*
X91773809Y-119977149D01*
X91773809Y-119977149D02*
X91821428Y-119977149D01*
X91821428Y-119977149D02*
X91892857Y-120000959D01*
X91892857Y-120000959D02*
X91916666Y-120024768D01*
X92083333Y-119977149D02*
X92392857Y-119977149D01*
X92392857Y-119977149D02*
X92226190Y-120167625D01*
X92226190Y-120167625D02*
X92297619Y-120167625D01*
X92297619Y-120167625D02*
X92345238Y-120191435D01*
X92345238Y-120191435D02*
X92369047Y-120215244D01*
X92369047Y-120215244D02*
X92392857Y-120262863D01*
X92392857Y-120262863D02*
X92392857Y-120381911D01*
X92392857Y-120381911D02*
X92369047Y-120429530D01*
X92369047Y-120429530D02*
X92345238Y-120453340D01*
X92345238Y-120453340D02*
X92297619Y-120477149D01*
X92297619Y-120477149D02*
X92154762Y-120477149D01*
X92154762Y-120477149D02*
X92107143Y-120453340D01*
X92107143Y-120453340D02*
X92083333Y-120429530D01*
X128704530Y-121208333D02*
X128728340Y-121232142D01*
X128728340Y-121232142D02*
X128752149Y-121303571D01*
X128752149Y-121303571D02*
X128752149Y-121351190D01*
X128752149Y-121351190D02*
X128728340Y-121422618D01*
X128728340Y-121422618D02*
X128680720Y-121470237D01*
X128680720Y-121470237D02*
X128633101Y-121494047D01*
X128633101Y-121494047D02*
X128537863Y-121517856D01*
X128537863Y-121517856D02*
X128466435Y-121517856D01*
X128466435Y-121517856D02*
X128371197Y-121494047D01*
X128371197Y-121494047D02*
X128323578Y-121470237D01*
X128323578Y-121470237D02*
X128275959Y-121422618D01*
X128275959Y-121422618D02*
X128252149Y-121351190D01*
X128252149Y-121351190D02*
X128252149Y-121303571D01*
X128252149Y-121303571D02*
X128275959Y-121232142D01*
X128275959Y-121232142D02*
X128299768Y-121208333D01*
X128252149Y-121041666D02*
X128252149Y-120708333D01*
X128252149Y-120708333D02*
X128752149Y-120922618D01*
X74254166Y-124727149D02*
X74087500Y-124489054D01*
X73968452Y-124727149D02*
X73968452Y-124227149D01*
X73968452Y-124227149D02*
X74158928Y-124227149D01*
X74158928Y-124227149D02*
X74206547Y-124250959D01*
X74206547Y-124250959D02*
X74230357Y-124274768D01*
X74230357Y-124274768D02*
X74254166Y-124322387D01*
X74254166Y-124322387D02*
X74254166Y-124393816D01*
X74254166Y-124393816D02*
X74230357Y-124441435D01*
X74230357Y-124441435D02*
X74206547Y-124465244D01*
X74206547Y-124465244D02*
X74158928Y-124489054D01*
X74158928Y-124489054D02*
X73968452Y-124489054D01*
X74706547Y-124227149D02*
X74468452Y-124227149D01*
X74468452Y-124227149D02*
X74444643Y-124465244D01*
X74444643Y-124465244D02*
X74468452Y-124441435D01*
X74468452Y-124441435D02*
X74516071Y-124417625D01*
X74516071Y-124417625D02*
X74635119Y-124417625D01*
X74635119Y-124417625D02*
X74682738Y-124441435D01*
X74682738Y-124441435D02*
X74706547Y-124465244D01*
X74706547Y-124465244D02*
X74730357Y-124512863D01*
X74730357Y-124512863D02*
X74730357Y-124631911D01*
X74730357Y-124631911D02*
X74706547Y-124679530D01*
X74706547Y-124679530D02*
X74682738Y-124703340D01*
X74682738Y-124703340D02*
X74635119Y-124727149D01*
X74635119Y-124727149D02*
X74516071Y-124727149D01*
X74516071Y-124727149D02*
X74468452Y-124703340D01*
X74468452Y-124703340D02*
X74444643Y-124679530D01*
X126002149Y-128370833D02*
X125764054Y-128537499D01*
X126002149Y-128656547D02*
X125502149Y-128656547D01*
X125502149Y-128656547D02*
X125502149Y-128466071D01*
X125502149Y-128466071D02*
X125525959Y-128418452D01*
X125525959Y-128418452D02*
X125549768Y-128394642D01*
X125549768Y-128394642D02*
X125597387Y-128370833D01*
X125597387Y-128370833D02*
X125668816Y-128370833D01*
X125668816Y-128370833D02*
X125716435Y-128394642D01*
X125716435Y-128394642D02*
X125740244Y-128418452D01*
X125740244Y-128418452D02*
X125764054Y-128466071D01*
X125764054Y-128466071D02*
X125764054Y-128656547D01*
X125502149Y-128204166D02*
X125502149Y-127870833D01*
X125502149Y-127870833D02*
X126002149Y-128085118D01*
X87466666Y-121679530D02*
X87442857Y-121703340D01*
X87442857Y-121703340D02*
X87371428Y-121727149D01*
X87371428Y-121727149D02*
X87323809Y-121727149D01*
X87323809Y-121727149D02*
X87252381Y-121703340D01*
X87252381Y-121703340D02*
X87204762Y-121655720D01*
X87204762Y-121655720D02*
X87180952Y-121608101D01*
X87180952Y-121608101D02*
X87157143Y-121512863D01*
X87157143Y-121512863D02*
X87157143Y-121441435D01*
X87157143Y-121441435D02*
X87180952Y-121346197D01*
X87180952Y-121346197D02*
X87204762Y-121298578D01*
X87204762Y-121298578D02*
X87252381Y-121250959D01*
X87252381Y-121250959D02*
X87323809Y-121227149D01*
X87323809Y-121227149D02*
X87371428Y-121227149D01*
X87371428Y-121227149D02*
X87442857Y-121250959D01*
X87442857Y-121250959D02*
X87466666Y-121274768D01*
X87752381Y-121441435D02*
X87704762Y-121417625D01*
X87704762Y-121417625D02*
X87680952Y-121393816D01*
X87680952Y-121393816D02*
X87657143Y-121346197D01*
X87657143Y-121346197D02*
X87657143Y-121322387D01*
X87657143Y-121322387D02*
X87680952Y-121274768D01*
X87680952Y-121274768D02*
X87704762Y-121250959D01*
X87704762Y-121250959D02*
X87752381Y-121227149D01*
X87752381Y-121227149D02*
X87847619Y-121227149D01*
X87847619Y-121227149D02*
X87895238Y-121250959D01*
X87895238Y-121250959D02*
X87919047Y-121274768D01*
X87919047Y-121274768D02*
X87942857Y-121322387D01*
X87942857Y-121322387D02*
X87942857Y-121346197D01*
X87942857Y-121346197D02*
X87919047Y-121393816D01*
X87919047Y-121393816D02*
X87895238Y-121417625D01*
X87895238Y-121417625D02*
X87847619Y-121441435D01*
X87847619Y-121441435D02*
X87752381Y-121441435D01*
X87752381Y-121441435D02*
X87704762Y-121465244D01*
X87704762Y-121465244D02*
X87680952Y-121489054D01*
X87680952Y-121489054D02*
X87657143Y-121536673D01*
X87657143Y-121536673D02*
X87657143Y-121631911D01*
X87657143Y-121631911D02*
X87680952Y-121679530D01*
X87680952Y-121679530D02*
X87704762Y-121703340D01*
X87704762Y-121703340D02*
X87752381Y-121727149D01*
X87752381Y-121727149D02*
X87847619Y-121727149D01*
X87847619Y-121727149D02*
X87895238Y-121703340D01*
X87895238Y-121703340D02*
X87919047Y-121679530D01*
X87919047Y-121679530D02*
X87942857Y-121631911D01*
X87942857Y-121631911D02*
X87942857Y-121536673D01*
X87942857Y-121536673D02*
X87919047Y-121489054D01*
X87919047Y-121489054D02*
X87895238Y-121465244D01*
X87895238Y-121465244D02*
X87847619Y-121441435D01*
X95177149Y-118895833D02*
X95177149Y-119133928D01*
X95177149Y-119133928D02*
X94677149Y-119133928D01*
X95177149Y-118467261D02*
X95177149Y-118752975D01*
X95177149Y-118610118D02*
X94677149Y-118610118D01*
X94677149Y-118610118D02*
X94748578Y-118657737D01*
X94748578Y-118657737D02*
X94796197Y-118705356D01*
X94796197Y-118705356D02*
X94820006Y-118752975D01*
X87504166Y-131477149D02*
X87337500Y-131239054D01*
X87218452Y-131477149D02*
X87218452Y-130977149D01*
X87218452Y-130977149D02*
X87408928Y-130977149D01*
X87408928Y-130977149D02*
X87456547Y-131000959D01*
X87456547Y-131000959D02*
X87480357Y-131024768D01*
X87480357Y-131024768D02*
X87504166Y-131072387D01*
X87504166Y-131072387D02*
X87504166Y-131143816D01*
X87504166Y-131143816D02*
X87480357Y-131191435D01*
X87480357Y-131191435D02*
X87456547Y-131215244D01*
X87456547Y-131215244D02*
X87408928Y-131239054D01*
X87408928Y-131239054D02*
X87218452Y-131239054D01*
X87670833Y-130977149D02*
X87980357Y-130977149D01*
X87980357Y-130977149D02*
X87813690Y-131167625D01*
X87813690Y-131167625D02*
X87885119Y-131167625D01*
X87885119Y-131167625D02*
X87932738Y-131191435D01*
X87932738Y-131191435D02*
X87956547Y-131215244D01*
X87956547Y-131215244D02*
X87980357Y-131262863D01*
X87980357Y-131262863D02*
X87980357Y-131381911D01*
X87980357Y-131381911D02*
X87956547Y-131429530D01*
X87956547Y-131429530D02*
X87932738Y-131453340D01*
X87932738Y-131453340D02*
X87885119Y-131477149D01*
X87885119Y-131477149D02*
X87742262Y-131477149D01*
X87742262Y-131477149D02*
X87694643Y-131453340D01*
X87694643Y-131453340D02*
X87670833Y-131429530D01*
X87504166Y-128227149D02*
X87337500Y-127989054D01*
X87218452Y-128227149D02*
X87218452Y-127727149D01*
X87218452Y-127727149D02*
X87408928Y-127727149D01*
X87408928Y-127727149D02*
X87456547Y-127750959D01*
X87456547Y-127750959D02*
X87480357Y-127774768D01*
X87480357Y-127774768D02*
X87504166Y-127822387D01*
X87504166Y-127822387D02*
X87504166Y-127893816D01*
X87504166Y-127893816D02*
X87480357Y-127941435D01*
X87480357Y-127941435D02*
X87456547Y-127965244D01*
X87456547Y-127965244D02*
X87408928Y-127989054D01*
X87408928Y-127989054D02*
X87218452Y-127989054D01*
X87694643Y-127774768D02*
X87718452Y-127750959D01*
X87718452Y-127750959D02*
X87766071Y-127727149D01*
X87766071Y-127727149D02*
X87885119Y-127727149D01*
X87885119Y-127727149D02*
X87932738Y-127750959D01*
X87932738Y-127750959D02*
X87956547Y-127774768D01*
X87956547Y-127774768D02*
X87980357Y-127822387D01*
X87980357Y-127822387D02*
X87980357Y-127870006D01*
X87980357Y-127870006D02*
X87956547Y-127941435D01*
X87956547Y-127941435D02*
X87670833Y-128227149D01*
X87670833Y-128227149D02*
X87980357Y-128227149D01*
D11*
X112746666Y-116585662D02*
X112746666Y-117128519D01*
X112746666Y-117128519D02*
X112710475Y-117237091D01*
X112710475Y-117237091D02*
X112638094Y-117309472D01*
X112638094Y-117309472D02*
X112529523Y-117345662D01*
X112529523Y-117345662D02*
X112457142Y-117345662D01*
X113506666Y-117345662D02*
X113072380Y-117345662D01*
X113289523Y-117345662D02*
X113289523Y-116585662D01*
X113289523Y-116585662D02*
X113217142Y-116694233D01*
X113217142Y-116694233D02*
X113144761Y-116766614D01*
X113144761Y-116766614D02*
X113072380Y-116802805D01*
D10*
X82679530Y-126883333D02*
X82703340Y-126907142D01*
X82703340Y-126907142D02*
X82727149Y-126978571D01*
X82727149Y-126978571D02*
X82727149Y-127026190D01*
X82727149Y-127026190D02*
X82703340Y-127097618D01*
X82703340Y-127097618D02*
X82655720Y-127145237D01*
X82655720Y-127145237D02*
X82608101Y-127169047D01*
X82608101Y-127169047D02*
X82512863Y-127192856D01*
X82512863Y-127192856D02*
X82441435Y-127192856D01*
X82441435Y-127192856D02*
X82346197Y-127169047D01*
X82346197Y-127169047D02*
X82298578Y-127145237D01*
X82298578Y-127145237D02*
X82250959Y-127097618D01*
X82250959Y-127097618D02*
X82227149Y-127026190D01*
X82227149Y-127026190D02*
X82227149Y-126978571D01*
X82227149Y-126978571D02*
X82250959Y-126907142D01*
X82250959Y-126907142D02*
X82274768Y-126883333D01*
X82393816Y-126454761D02*
X82727149Y-126454761D01*
X82203340Y-126573809D02*
X82560482Y-126692856D01*
X82560482Y-126692856D02*
X82560482Y-126383333D01*
X111429530Y-124271428D02*
X111453340Y-124295237D01*
X111453340Y-124295237D02*
X111477149Y-124366666D01*
X111477149Y-124366666D02*
X111477149Y-124414285D01*
X111477149Y-124414285D02*
X111453340Y-124485713D01*
X111453340Y-124485713D02*
X111405720Y-124533332D01*
X111405720Y-124533332D02*
X111358101Y-124557142D01*
X111358101Y-124557142D02*
X111262863Y-124580951D01*
X111262863Y-124580951D02*
X111191435Y-124580951D01*
X111191435Y-124580951D02*
X111096197Y-124557142D01*
X111096197Y-124557142D02*
X111048578Y-124533332D01*
X111048578Y-124533332D02*
X111000959Y-124485713D01*
X111000959Y-124485713D02*
X110977149Y-124414285D01*
X110977149Y-124414285D02*
X110977149Y-124366666D01*
X110977149Y-124366666D02*
X111000959Y-124295237D01*
X111000959Y-124295237D02*
X111024768Y-124271428D01*
X111477149Y-123795237D02*
X111477149Y-124080951D01*
X111477149Y-123938094D02*
X110977149Y-123938094D01*
X110977149Y-123938094D02*
X111048578Y-123985713D01*
X111048578Y-123985713D02*
X111096197Y-124033332D01*
X111096197Y-124033332D02*
X111120006Y-124080951D01*
X110977149Y-123485714D02*
X110977149Y-123438095D01*
X110977149Y-123438095D02*
X111000959Y-123390476D01*
X111000959Y-123390476D02*
X111024768Y-123366666D01*
X111024768Y-123366666D02*
X111072387Y-123342857D01*
X111072387Y-123342857D02*
X111167625Y-123319047D01*
X111167625Y-123319047D02*
X111286673Y-123319047D01*
X111286673Y-123319047D02*
X111381911Y-123342857D01*
X111381911Y-123342857D02*
X111429530Y-123366666D01*
X111429530Y-123366666D02*
X111453340Y-123390476D01*
X111453340Y-123390476D02*
X111477149Y-123438095D01*
X111477149Y-123438095D02*
X111477149Y-123485714D01*
X111477149Y-123485714D02*
X111453340Y-123533333D01*
X111453340Y-123533333D02*
X111429530Y-123557142D01*
X111429530Y-123557142D02*
X111381911Y-123580952D01*
X111381911Y-123580952D02*
X111286673Y-123604761D01*
X111286673Y-123604761D02*
X111167625Y-123604761D01*
X111167625Y-123604761D02*
X111072387Y-123580952D01*
X111072387Y-123580952D02*
X111024768Y-123557142D01*
X111024768Y-123557142D02*
X111000959Y-123533333D01*
X111000959Y-123533333D02*
X110977149Y-123485714D01*
X87228571Y-124929530D02*
X87204762Y-124953340D01*
X87204762Y-124953340D02*
X87133333Y-124977149D01*
X87133333Y-124977149D02*
X87085714Y-124977149D01*
X87085714Y-124977149D02*
X87014286Y-124953340D01*
X87014286Y-124953340D02*
X86966667Y-124905720D01*
X86966667Y-124905720D02*
X86942857Y-124858101D01*
X86942857Y-124858101D02*
X86919048Y-124762863D01*
X86919048Y-124762863D02*
X86919048Y-124691435D01*
X86919048Y-124691435D02*
X86942857Y-124596197D01*
X86942857Y-124596197D02*
X86966667Y-124548578D01*
X86966667Y-124548578D02*
X87014286Y-124500959D01*
X87014286Y-124500959D02*
X87085714Y-124477149D01*
X87085714Y-124477149D02*
X87133333Y-124477149D01*
X87133333Y-124477149D02*
X87204762Y-124500959D01*
X87204762Y-124500959D02*
X87228571Y-124524768D01*
X87704762Y-124977149D02*
X87419048Y-124977149D01*
X87561905Y-124977149D02*
X87561905Y-124477149D01*
X87561905Y-124477149D02*
X87514286Y-124548578D01*
X87514286Y-124548578D02*
X87466667Y-124596197D01*
X87466667Y-124596197D02*
X87419048Y-124620006D01*
X87871428Y-124477149D02*
X88180952Y-124477149D01*
X88180952Y-124477149D02*
X88014285Y-124667625D01*
X88014285Y-124667625D02*
X88085714Y-124667625D01*
X88085714Y-124667625D02*
X88133333Y-124691435D01*
X88133333Y-124691435D02*
X88157142Y-124715244D01*
X88157142Y-124715244D02*
X88180952Y-124762863D01*
X88180952Y-124762863D02*
X88180952Y-124881911D01*
X88180952Y-124881911D02*
X88157142Y-124929530D01*
X88157142Y-124929530D02*
X88133333Y-124953340D01*
X88133333Y-124953340D02*
X88085714Y-124977149D01*
X88085714Y-124977149D02*
X87942857Y-124977149D01*
X87942857Y-124977149D02*
X87895238Y-124953340D01*
X87895238Y-124953340D02*
X87871428Y-124929530D01*
X74079166Y-118977149D02*
X73841071Y-118977149D01*
X73841071Y-118977149D02*
X73841071Y-118477149D01*
X74222024Y-118524768D02*
X74245833Y-118500959D01*
X74245833Y-118500959D02*
X74293452Y-118477149D01*
X74293452Y-118477149D02*
X74412500Y-118477149D01*
X74412500Y-118477149D02*
X74460119Y-118500959D01*
X74460119Y-118500959D02*
X74483928Y-118524768D01*
X74483928Y-118524768D02*
X74507738Y-118572387D01*
X74507738Y-118572387D02*
X74507738Y-118620006D01*
X74507738Y-118620006D02*
X74483928Y-118691435D01*
X74483928Y-118691435D02*
X74198214Y-118977149D01*
X74198214Y-118977149D02*
X74507738Y-118977149D01*
X74216666Y-121679530D02*
X74192857Y-121703340D01*
X74192857Y-121703340D02*
X74121428Y-121727149D01*
X74121428Y-121727149D02*
X74073809Y-121727149D01*
X74073809Y-121727149D02*
X74002381Y-121703340D01*
X74002381Y-121703340D02*
X73954762Y-121655720D01*
X73954762Y-121655720D02*
X73930952Y-121608101D01*
X73930952Y-121608101D02*
X73907143Y-121512863D01*
X73907143Y-121512863D02*
X73907143Y-121441435D01*
X73907143Y-121441435D02*
X73930952Y-121346197D01*
X73930952Y-121346197D02*
X73954762Y-121298578D01*
X73954762Y-121298578D02*
X74002381Y-121250959D01*
X74002381Y-121250959D02*
X74073809Y-121227149D01*
X74073809Y-121227149D02*
X74121428Y-121227149D01*
X74121428Y-121227149D02*
X74192857Y-121250959D01*
X74192857Y-121250959D02*
X74216666Y-121274768D01*
X74669047Y-121227149D02*
X74430952Y-121227149D01*
X74430952Y-121227149D02*
X74407143Y-121465244D01*
X74407143Y-121465244D02*
X74430952Y-121441435D01*
X74430952Y-121441435D02*
X74478571Y-121417625D01*
X74478571Y-121417625D02*
X74597619Y-121417625D01*
X74597619Y-121417625D02*
X74645238Y-121441435D01*
X74645238Y-121441435D02*
X74669047Y-121465244D01*
X74669047Y-121465244D02*
X74692857Y-121512863D01*
X74692857Y-121512863D02*
X74692857Y-121631911D01*
X74692857Y-121631911D02*
X74669047Y-121679530D01*
X74669047Y-121679530D02*
X74645238Y-121703340D01*
X74645238Y-121703340D02*
X74597619Y-121727149D01*
X74597619Y-121727149D02*
X74478571Y-121727149D01*
X74478571Y-121727149D02*
X74430952Y-121703340D01*
X74430952Y-121703340D02*
X74407143Y-121679530D01*
D12*
X73972891Y-133300000D02*
X74401462Y-133300000D01*
X74401462Y-133300000D02*
X74487177Y-133328571D01*
X74487177Y-133328571D02*
X74544320Y-133385714D01*
X74544320Y-133385714D02*
X74572891Y-133471428D01*
X74572891Y-133471428D02*
X74572891Y-133528571D01*
X73972891Y-133071428D02*
X73972891Y-132700000D01*
X73972891Y-132700000D02*
X74201462Y-132900000D01*
X74201462Y-132900000D02*
X74201462Y-132814285D01*
X74201462Y-132814285D02*
X74230034Y-132757143D01*
X74230034Y-132757143D02*
X74258605Y-132728571D01*
X74258605Y-132728571D02*
X74315748Y-132700000D01*
X74315748Y-132700000D02*
X74458605Y-132700000D01*
X74458605Y-132700000D02*
X74515748Y-132728571D01*
X74515748Y-132728571D02*
X74544320Y-132757143D01*
X74544320Y-132757143D02*
X74572891Y-132814285D01*
X74572891Y-132814285D02*
X74572891Y-132985714D01*
X74572891Y-132985714D02*
X74544320Y-133042857D01*
X74544320Y-133042857D02*
X74515748Y-133071428D01*
D10*
X77679530Y-128383333D02*
X77703340Y-128407142D01*
X77703340Y-128407142D02*
X77727149Y-128478571D01*
X77727149Y-128478571D02*
X77727149Y-128526190D01*
X77727149Y-128526190D02*
X77703340Y-128597618D01*
X77703340Y-128597618D02*
X77655720Y-128645237D01*
X77655720Y-128645237D02*
X77608101Y-128669047D01*
X77608101Y-128669047D02*
X77512863Y-128692856D01*
X77512863Y-128692856D02*
X77441435Y-128692856D01*
X77441435Y-128692856D02*
X77346197Y-128669047D01*
X77346197Y-128669047D02*
X77298578Y-128645237D01*
X77298578Y-128645237D02*
X77250959Y-128597618D01*
X77250959Y-128597618D02*
X77227149Y-128526190D01*
X77227149Y-128526190D02*
X77227149Y-128478571D01*
X77227149Y-128478571D02*
X77250959Y-128407142D01*
X77250959Y-128407142D02*
X77274768Y-128383333D01*
X77227149Y-127954761D02*
X77227149Y-128049999D01*
X77227149Y-128049999D02*
X77250959Y-128097618D01*
X77250959Y-128097618D02*
X77274768Y-128121428D01*
X77274768Y-128121428D02*
X77346197Y-128169047D01*
X77346197Y-128169047D02*
X77441435Y-128192856D01*
X77441435Y-128192856D02*
X77631911Y-128192856D01*
X77631911Y-128192856D02*
X77679530Y-128169047D01*
X77679530Y-128169047D02*
X77703340Y-128145237D01*
X77703340Y-128145237D02*
X77727149Y-128097618D01*
X77727149Y-128097618D02*
X77727149Y-128002380D01*
X77727149Y-128002380D02*
X77703340Y-127954761D01*
X77703340Y-127954761D02*
X77679530Y-127930952D01*
X77679530Y-127930952D02*
X77631911Y-127907142D01*
X77631911Y-127907142D02*
X77512863Y-127907142D01*
X77512863Y-127907142D02*
X77465244Y-127930952D01*
X77465244Y-127930952D02*
X77441435Y-127954761D01*
X77441435Y-127954761D02*
X77417625Y-128002380D01*
X77417625Y-128002380D02*
X77417625Y-128097618D01*
X77417625Y-128097618D02*
X77441435Y-128145237D01*
X77441435Y-128145237D02*
X77465244Y-128169047D01*
X77465244Y-128169047D02*
X77512863Y-128192856D01*
X94929530Y-130583333D02*
X94953340Y-130607142D01*
X94953340Y-130607142D02*
X94977149Y-130678571D01*
X94977149Y-130678571D02*
X94977149Y-130726190D01*
X94977149Y-130726190D02*
X94953340Y-130797618D01*
X94953340Y-130797618D02*
X94905720Y-130845237D01*
X94905720Y-130845237D02*
X94858101Y-130869047D01*
X94858101Y-130869047D02*
X94762863Y-130892856D01*
X94762863Y-130892856D02*
X94691435Y-130892856D01*
X94691435Y-130892856D02*
X94596197Y-130869047D01*
X94596197Y-130869047D02*
X94548578Y-130845237D01*
X94548578Y-130845237D02*
X94500959Y-130797618D01*
X94500959Y-130797618D02*
X94477149Y-130726190D01*
X94477149Y-130726190D02*
X94477149Y-130678571D01*
X94477149Y-130678571D02*
X94500959Y-130607142D01*
X94500959Y-130607142D02*
X94524768Y-130583333D01*
X94977149Y-130345237D02*
X94977149Y-130249999D01*
X94977149Y-130249999D02*
X94953340Y-130202380D01*
X94953340Y-130202380D02*
X94929530Y-130178571D01*
X94929530Y-130178571D02*
X94858101Y-130130952D01*
X94858101Y-130130952D02*
X94762863Y-130107142D01*
X94762863Y-130107142D02*
X94572387Y-130107142D01*
X94572387Y-130107142D02*
X94524768Y-130130952D01*
X94524768Y-130130952D02*
X94500959Y-130154761D01*
X94500959Y-130154761D02*
X94477149Y-130202380D01*
X94477149Y-130202380D02*
X94477149Y-130297618D01*
X94477149Y-130297618D02*
X94500959Y-130345237D01*
X94500959Y-130345237D02*
X94524768Y-130369047D01*
X94524768Y-130369047D02*
X94572387Y-130392856D01*
X94572387Y-130392856D02*
X94691435Y-130392856D01*
X94691435Y-130392856D02*
X94739054Y-130369047D01*
X94739054Y-130369047D02*
X94762863Y-130345237D01*
X94762863Y-130345237D02*
X94786673Y-130297618D01*
X94786673Y-130297618D02*
X94786673Y-130202380D01*
X94786673Y-130202380D02*
X94762863Y-130154761D01*
X94762863Y-130154761D02*
X94739054Y-130130952D01*
X94739054Y-130130952D02*
X94691435Y-130107142D01*
X74254166Y-127727149D02*
X74087500Y-127489054D01*
X73968452Y-127727149D02*
X73968452Y-127227149D01*
X73968452Y-127227149D02*
X74158928Y-127227149D01*
X74158928Y-127227149D02*
X74206547Y-127250959D01*
X74206547Y-127250959D02*
X74230357Y-127274768D01*
X74230357Y-127274768D02*
X74254166Y-127322387D01*
X74254166Y-127322387D02*
X74254166Y-127393816D01*
X74254166Y-127393816D02*
X74230357Y-127441435D01*
X74230357Y-127441435D02*
X74206547Y-127465244D01*
X74206547Y-127465244D02*
X74158928Y-127489054D01*
X74158928Y-127489054D02*
X73968452Y-127489054D01*
X74682738Y-127227149D02*
X74587500Y-127227149D01*
X74587500Y-127227149D02*
X74539881Y-127250959D01*
X74539881Y-127250959D02*
X74516071Y-127274768D01*
X74516071Y-127274768D02*
X74468452Y-127346197D01*
X74468452Y-127346197D02*
X74444643Y-127441435D01*
X74444643Y-127441435D02*
X74444643Y-127631911D01*
X74444643Y-127631911D02*
X74468452Y-127679530D01*
X74468452Y-127679530D02*
X74492262Y-127703340D01*
X74492262Y-127703340D02*
X74539881Y-127727149D01*
X74539881Y-127727149D02*
X74635119Y-127727149D01*
X74635119Y-127727149D02*
X74682738Y-127703340D01*
X74682738Y-127703340D02*
X74706547Y-127679530D01*
X74706547Y-127679530D02*
X74730357Y-127631911D01*
X74730357Y-127631911D02*
X74730357Y-127512863D01*
X74730357Y-127512863D02*
X74706547Y-127465244D01*
X74706547Y-127465244D02*
X74682738Y-127441435D01*
X74682738Y-127441435D02*
X74635119Y-127417625D01*
X74635119Y-127417625D02*
X74539881Y-127417625D01*
X74539881Y-127417625D02*
X74492262Y-127441435D01*
X74492262Y-127441435D02*
X74468452Y-127465244D01*
X74468452Y-127465244D02*
X74444643Y-127512863D01*
D13*
X92208600Y-124257019D02*
X92208600Y-124495114D01*
X91970505Y-124399876D02*
X92208600Y-124495114D01*
X92208600Y-124495114D02*
X92446695Y-124399876D01*
X92065743Y-124685590D02*
X92208600Y-124495114D01*
X92208600Y-124495114D02*
X92351457Y-124685590D01*
X92208600Y-124257019D02*
X92208600Y-124495114D01*
X91970505Y-124399876D02*
X92208600Y-124495114D01*
X92208600Y-124495114D02*
X92446695Y-124399876D01*
X92065743Y-124685590D02*
X92208600Y-124495114D01*
X92208600Y-124495114D02*
X92351457Y-124685590D01*
D10*
X74104166Y-116477149D02*
X73937500Y-116239054D01*
X73818452Y-116477149D02*
X73818452Y-115977149D01*
X73818452Y-115977149D02*
X74008928Y-115977149D01*
X74008928Y-115977149D02*
X74056547Y-116000959D01*
X74056547Y-116000959D02*
X74080357Y-116024768D01*
X74080357Y-116024768D02*
X74104166Y-116072387D01*
X74104166Y-116072387D02*
X74104166Y-116143816D01*
X74104166Y-116143816D02*
X74080357Y-116191435D01*
X74080357Y-116191435D02*
X74056547Y-116215244D01*
X74056547Y-116215244D02*
X74008928Y-116239054D01*
X74008928Y-116239054D02*
X73818452Y-116239054D01*
X74532738Y-116143816D02*
X74532738Y-116477149D01*
X74413690Y-115953340D02*
X74294643Y-116310482D01*
X74294643Y-116310482D02*
X74604166Y-116310482D01*
D14*
X113140476Y-130663855D02*
X113140476Y-131311474D01*
X113140476Y-131311474D02*
X113178571Y-131387664D01*
X113178571Y-131387664D02*
X113216666Y-131425760D01*
X113216666Y-131425760D02*
X113292857Y-131463855D01*
X113292857Y-131463855D02*
X113445238Y-131463855D01*
X113445238Y-131463855D02*
X113521428Y-131425760D01*
X113521428Y-131425760D02*
X113559523Y-131387664D01*
X113559523Y-131387664D02*
X113597619Y-131311474D01*
X113597619Y-131311474D02*
X113597619Y-130663855D01*
X114321428Y-130930521D02*
X114321428Y-131463855D01*
X114130952Y-130625760D02*
X113940475Y-131197188D01*
X113940475Y-131197188D02*
X114435714Y-131197188D01*
D10*
X132954530Y-121496428D02*
X132978340Y-121520237D01*
X132978340Y-121520237D02*
X133002149Y-121591666D01*
X133002149Y-121591666D02*
X133002149Y-121639285D01*
X133002149Y-121639285D02*
X132978340Y-121710713D01*
X132978340Y-121710713D02*
X132930720Y-121758332D01*
X132930720Y-121758332D02*
X132883101Y-121782142D01*
X132883101Y-121782142D02*
X132787863Y-121805951D01*
X132787863Y-121805951D02*
X132716435Y-121805951D01*
X132716435Y-121805951D02*
X132621197Y-121782142D01*
X132621197Y-121782142D02*
X132573578Y-121758332D01*
X132573578Y-121758332D02*
X132525959Y-121710713D01*
X132525959Y-121710713D02*
X132502149Y-121639285D01*
X132502149Y-121639285D02*
X132502149Y-121591666D01*
X132502149Y-121591666D02*
X132525959Y-121520237D01*
X132525959Y-121520237D02*
X132549768Y-121496428D01*
X133002149Y-121020237D02*
X133002149Y-121305951D01*
X133002149Y-121163094D02*
X132502149Y-121163094D01*
X132502149Y-121163094D02*
X132573578Y-121210713D01*
X132573578Y-121210713D02*
X132621197Y-121258332D01*
X132621197Y-121258332D02*
X132645006Y-121305951D01*
X132549768Y-120829761D02*
X132525959Y-120805952D01*
X132525959Y-120805952D02*
X132502149Y-120758333D01*
X132502149Y-120758333D02*
X132502149Y-120639285D01*
X132502149Y-120639285D02*
X132525959Y-120591666D01*
X132525959Y-120591666D02*
X132549768Y-120567857D01*
X132549768Y-120567857D02*
X132597387Y-120544047D01*
X132597387Y-120544047D02*
X132645006Y-120544047D01*
X132645006Y-120544047D02*
X132716435Y-120567857D01*
X132716435Y-120567857D02*
X133002149Y-120853571D01*
X133002149Y-120853571D02*
X133002149Y-120544047D01*
X123502149Y-128370833D02*
X123264054Y-128537499D01*
X123502149Y-128656547D02*
X123002149Y-128656547D01*
X123002149Y-128656547D02*
X123002149Y-128466071D01*
X123002149Y-128466071D02*
X123025959Y-128418452D01*
X123025959Y-128418452D02*
X123049768Y-128394642D01*
X123049768Y-128394642D02*
X123097387Y-128370833D01*
X123097387Y-128370833D02*
X123168816Y-128370833D01*
X123168816Y-128370833D02*
X123216435Y-128394642D01*
X123216435Y-128394642D02*
X123240244Y-128418452D01*
X123240244Y-128418452D02*
X123264054Y-128466071D01*
X123264054Y-128466071D02*
X123264054Y-128656547D01*
X123216435Y-128085118D02*
X123192625Y-128132737D01*
X123192625Y-128132737D02*
X123168816Y-128156547D01*
X123168816Y-128156547D02*
X123121197Y-128180356D01*
X123121197Y-128180356D02*
X123097387Y-128180356D01*
X123097387Y-128180356D02*
X123049768Y-128156547D01*
X123049768Y-128156547D02*
X123025959Y-128132737D01*
X123025959Y-128132737D02*
X123002149Y-128085118D01*
X123002149Y-128085118D02*
X123002149Y-127989880D01*
X123002149Y-127989880D02*
X123025959Y-127942261D01*
X123025959Y-127942261D02*
X123049768Y-127918452D01*
X123049768Y-127918452D02*
X123097387Y-127894642D01*
X123097387Y-127894642D02*
X123121197Y-127894642D01*
X123121197Y-127894642D02*
X123168816Y-127918452D01*
X123168816Y-127918452D02*
X123192625Y-127942261D01*
X123192625Y-127942261D02*
X123216435Y-127989880D01*
X123216435Y-127989880D02*
X123216435Y-128085118D01*
X123216435Y-128085118D02*
X123240244Y-128132737D01*
X123240244Y-128132737D02*
X123264054Y-128156547D01*
X123264054Y-128156547D02*
X123311673Y-128180356D01*
X123311673Y-128180356D02*
X123406911Y-128180356D01*
X123406911Y-128180356D02*
X123454530Y-128156547D01*
X123454530Y-128156547D02*
X123478340Y-128132737D01*
X123478340Y-128132737D02*
X123502149Y-128085118D01*
X123502149Y-128085118D02*
X123502149Y-127989880D01*
X123502149Y-127989880D02*
X123478340Y-127942261D01*
X123478340Y-127942261D02*
X123454530Y-127918452D01*
X123454530Y-127918452D02*
X123406911Y-127894642D01*
X123406911Y-127894642D02*
X123311673Y-127894642D01*
X123311673Y-127894642D02*
X123264054Y-127918452D01*
X123264054Y-127918452D02*
X123240244Y-127942261D01*
X123240244Y-127942261D02*
X123216435Y-127989880D01*
X113929530Y-124321428D02*
X113953340Y-124345237D01*
X113953340Y-124345237D02*
X113977149Y-124416666D01*
X113977149Y-124416666D02*
X113977149Y-124464285D01*
X113977149Y-124464285D02*
X113953340Y-124535713D01*
X113953340Y-124535713D02*
X113905720Y-124583332D01*
X113905720Y-124583332D02*
X113858101Y-124607142D01*
X113858101Y-124607142D02*
X113762863Y-124630951D01*
X113762863Y-124630951D02*
X113691435Y-124630951D01*
X113691435Y-124630951D02*
X113596197Y-124607142D01*
X113596197Y-124607142D02*
X113548578Y-124583332D01*
X113548578Y-124583332D02*
X113500959Y-124535713D01*
X113500959Y-124535713D02*
X113477149Y-124464285D01*
X113477149Y-124464285D02*
X113477149Y-124416666D01*
X113477149Y-124416666D02*
X113500959Y-124345237D01*
X113500959Y-124345237D02*
X113524768Y-124321428D01*
X113977149Y-123845237D02*
X113977149Y-124130951D01*
X113977149Y-123988094D02*
X113477149Y-123988094D01*
X113477149Y-123988094D02*
X113548578Y-124035713D01*
X113548578Y-124035713D02*
X113596197Y-124083332D01*
X113596197Y-124083332D02*
X113620006Y-124130951D01*
X113977149Y-123369047D02*
X113977149Y-123654761D01*
X113977149Y-123511904D02*
X113477149Y-123511904D01*
X113477149Y-123511904D02*
X113548578Y-123559523D01*
X113548578Y-123559523D02*
X113596197Y-123607142D01*
X113596197Y-123607142D02*
X113620006Y-123654761D01*
X97679530Y-130533333D02*
X97703340Y-130557142D01*
X97703340Y-130557142D02*
X97727149Y-130628571D01*
X97727149Y-130628571D02*
X97727149Y-130676190D01*
X97727149Y-130676190D02*
X97703340Y-130747618D01*
X97703340Y-130747618D02*
X97655720Y-130795237D01*
X97655720Y-130795237D02*
X97608101Y-130819047D01*
X97608101Y-130819047D02*
X97512863Y-130842856D01*
X97512863Y-130842856D02*
X97441435Y-130842856D01*
X97441435Y-130842856D02*
X97346197Y-130819047D01*
X97346197Y-130819047D02*
X97298578Y-130795237D01*
X97298578Y-130795237D02*
X97250959Y-130747618D01*
X97250959Y-130747618D02*
X97227149Y-130676190D01*
X97227149Y-130676190D02*
X97227149Y-130628571D01*
X97227149Y-130628571D02*
X97250959Y-130557142D01*
X97250959Y-130557142D02*
X97274768Y-130533333D01*
X97727149Y-130057142D02*
X97727149Y-130342856D01*
X97727149Y-130199999D02*
X97227149Y-130199999D01*
X97227149Y-130199999D02*
X97298578Y-130247618D01*
X97298578Y-130247618D02*
X97346197Y-130295237D01*
X97346197Y-130295237D02*
X97370006Y-130342856D01*
X91916666Y-117679530D02*
X91892857Y-117703340D01*
X91892857Y-117703340D02*
X91821428Y-117727149D01*
X91821428Y-117727149D02*
X91773809Y-117727149D01*
X91773809Y-117727149D02*
X91702381Y-117703340D01*
X91702381Y-117703340D02*
X91654762Y-117655720D01*
X91654762Y-117655720D02*
X91630952Y-117608101D01*
X91630952Y-117608101D02*
X91607143Y-117512863D01*
X91607143Y-117512863D02*
X91607143Y-117441435D01*
X91607143Y-117441435D02*
X91630952Y-117346197D01*
X91630952Y-117346197D02*
X91654762Y-117298578D01*
X91654762Y-117298578D02*
X91702381Y-117250959D01*
X91702381Y-117250959D02*
X91773809Y-117227149D01*
X91773809Y-117227149D02*
X91821428Y-117227149D01*
X91821428Y-117227149D02*
X91892857Y-117250959D01*
X91892857Y-117250959D02*
X91916666Y-117274768D01*
X92107143Y-117274768D02*
X92130952Y-117250959D01*
X92130952Y-117250959D02*
X92178571Y-117227149D01*
X92178571Y-117227149D02*
X92297619Y-117227149D01*
X92297619Y-117227149D02*
X92345238Y-117250959D01*
X92345238Y-117250959D02*
X92369047Y-117274768D01*
X92369047Y-117274768D02*
X92392857Y-117322387D01*
X92392857Y-117322387D02*
X92392857Y-117370006D01*
X92392857Y-117370006D02*
X92369047Y-117441435D01*
X92369047Y-117441435D02*
X92083333Y-117727149D01*
X92083333Y-117727149D02*
X92392857Y-117727149D01*
X100477149Y-130495833D02*
X100239054Y-130662499D01*
X100477149Y-130781547D02*
X99977149Y-130781547D01*
X99977149Y-130781547D02*
X99977149Y-130591071D01*
X99977149Y-130591071D02*
X100000959Y-130543452D01*
X100000959Y-130543452D02*
X100024768Y-130519642D01*
X100024768Y-130519642D02*
X100072387Y-130495833D01*
X100072387Y-130495833D02*
X100143816Y-130495833D01*
X100143816Y-130495833D02*
X100191435Y-130519642D01*
X100191435Y-130519642D02*
X100215244Y-130543452D01*
X100215244Y-130543452D02*
X100239054Y-130591071D01*
X100239054Y-130591071D02*
X100239054Y-130781547D01*
X100477149Y-130019642D02*
X100477149Y-130305356D01*
X100477149Y-130162499D02*
X99977149Y-130162499D01*
X99977149Y-130162499D02*
X100048578Y-130210118D01*
X100048578Y-130210118D02*
X100096197Y-130257737D01*
X100096197Y-130257737D02*
X100120006Y-130305356D01*
%TO.C,D1*%
D15*
X77850000Y-130600000D02*
X79650000Y-130600000D01*
X77850000Y-132000000D02*
X77850000Y-130600000D01*
X78550000Y-130950000D02*
X79050000Y-131300000D01*
X78550000Y-131300000D02*
X78300000Y-131300000D01*
X78550000Y-131650000D02*
X78550000Y-130950000D01*
X79050000Y-131300000D02*
X78550000Y-131650000D01*
X79050000Y-131300000D02*
X79250000Y-131300000D01*
X79050000Y-131650000D02*
X79050000Y-130950000D01*
X79650000Y-130600000D02*
X79650000Y-132000000D01*
X79650000Y-132000000D02*
X77850000Y-132000000D01*
%TO.C,Y1*%
X120725000Y-122125000D02*
X120725000Y-124825000D01*
X120725000Y-124825000D02*
X124125000Y-124825000D01*
X124125000Y-122125000D02*
X120725000Y-122125000D01*
X124125000Y-124825000D02*
X124125000Y-122125000D01*
%TO.C,C3*%
X91000000Y-119625000D02*
X93000000Y-119625000D01*
X93000000Y-120875000D01*
X91000000Y-120875000D01*
X91000000Y-119625000D01*
%TO.C,C7*%
X127900000Y-120125000D02*
X129150000Y-120125000D01*
X129150000Y-122125000D01*
X127900000Y-122125000D01*
X127900000Y-120125000D01*
%TO.C,R5*%
X73337500Y-123875000D02*
X75337500Y-123875000D01*
X75337500Y-125125000D01*
X73337500Y-125125000D01*
X73337500Y-123875000D01*
%TO.C,R7*%
X125150000Y-127287500D02*
X126400000Y-127287500D01*
X126400000Y-129287500D01*
X125150000Y-129287500D01*
X125150000Y-127287500D01*
%TO.C,C8*%
X86550000Y-120875000D02*
X88550000Y-120875000D01*
X88550000Y-122125000D01*
X86550000Y-122125000D01*
X86550000Y-120875000D01*
%TO.C,L1*%
X94500000Y-117812500D02*
X95400000Y-117812500D01*
X95400000Y-119812500D01*
X94500000Y-119812500D01*
X94500000Y-117812500D01*
%TO.C,R3*%
X86587500Y-130625000D02*
X88587500Y-130625000D01*
X88587500Y-131875000D01*
X86587500Y-131875000D01*
X86587500Y-130625000D01*
%TO.C,R2*%
X86587500Y-127375000D02*
X88587500Y-127375000D01*
X88587500Y-128625000D01*
X86587500Y-128625000D01*
X86587500Y-127375000D01*
%TO.C,J1*%
X110000000Y-116365000D02*
X116000000Y-116365000D01*
X110000000Y-117317500D02*
X110000000Y-116365000D01*
X110317500Y-117635000D02*
X110000000Y-117317500D01*
X116000000Y-116365000D02*
X116000000Y-117635000D01*
X116000000Y-117635000D02*
X110317500Y-117635000D01*
%TO.C,C4*%
X81875000Y-125800000D02*
X83125000Y-125800000D01*
X83125000Y-127800000D01*
X81875000Y-127800000D01*
X81875000Y-125800000D01*
%TO.C,C10*%
X110625000Y-122950000D02*
X111875000Y-122950000D01*
X111875000Y-124950000D01*
X110625000Y-124950000D01*
X110625000Y-122950000D01*
%TO.C,C13*%
X86550000Y-124125000D02*
X88550000Y-124125000D01*
X88550000Y-125375000D01*
X86550000Y-125375000D01*
X86550000Y-124125000D01*
%TO.C,L2*%
X73162500Y-118300000D02*
X75162500Y-118300000D01*
X75162500Y-119200000D01*
X73162500Y-119200000D01*
X73162500Y-118300000D01*
%TO.C,C5*%
X73300000Y-120875000D02*
X75300000Y-120875000D01*
X75300000Y-122125000D01*
X73300000Y-122125000D01*
X73300000Y-120875000D01*
%TO.C,J3*%
X73000000Y-131800000D02*
X73400000Y-131800000D01*
X73000000Y-134400000D02*
X73000000Y-131800000D01*
X73000000Y-134400000D02*
X73400000Y-134400000D01*
X73400000Y-131600000D02*
X73400000Y-131800000D01*
X73400000Y-134600000D02*
X73400000Y-134400000D01*
X75200000Y-131600000D02*
X73400000Y-131600000D01*
X75200000Y-131600000D02*
X75200000Y-131800000D01*
X75200000Y-131800000D02*
X75600000Y-131800000D01*
X75200000Y-134400000D02*
X75600000Y-134400000D01*
X75200000Y-134600000D02*
X73400000Y-134600000D01*
X75200000Y-134600000D02*
X75200000Y-134400000D01*
X75600000Y-132800000D02*
X75600000Y-131800000D01*
X75600000Y-133400000D02*
X75600000Y-134400000D01*
X75700000Y-133400000D02*
X75600000Y-133400000D01*
X75700000Y-133400000D02*
X75850000Y-133250000D01*
X75850000Y-132800000D02*
X75600000Y-132800000D01*
X75850000Y-132800000D02*
X75850000Y-133250000D01*
%TO.C,C6*%
X76875000Y-127300000D02*
X78125000Y-127300000D01*
X78125000Y-129300000D01*
X76875000Y-129300000D01*
X76875000Y-127300000D01*
%TO.C,C9*%
X94125000Y-129500000D02*
X95375000Y-129500000D01*
X95375000Y-131500000D01*
X94125000Y-131500000D01*
X94125000Y-129500000D01*
%TO.C,R6*%
X73337500Y-126875000D02*
X75337500Y-126875000D01*
X75337500Y-128125000D01*
X73337500Y-128125000D01*
X73337500Y-126875000D01*
%TO.C,U2*%
D16*
X91700600Y-124252800D02*
X91700600Y-124252800D01*
X91700600Y-124252800D02*
X91700600Y-127351600D01*
X91700600Y-124899800D02*
X91700600Y-124899800D01*
X91700600Y-124899800D02*
X91700600Y-125204600D01*
X91700600Y-125204600D02*
X91700600Y-124899800D01*
X91700600Y-125204600D02*
X91700600Y-125204600D01*
X91700600Y-125399800D02*
X91700600Y-125399800D01*
X91700600Y-125399800D02*
X91700600Y-125704600D01*
X91700600Y-125522800D02*
X92970600Y-124252800D01*
X91700600Y-125704600D02*
X91700600Y-125399800D01*
X91700600Y-125704600D02*
X91700600Y-125704600D01*
X91700600Y-125899800D02*
X91700600Y-125899800D01*
X91700600Y-125899800D02*
X91700600Y-126204600D01*
X91700600Y-126204600D02*
X91700600Y-125899800D01*
X91700600Y-126204600D02*
X91700600Y-126204600D01*
X91700600Y-126399800D02*
X91700600Y-126399800D01*
X91700600Y-126399800D02*
X91700600Y-126704600D01*
X91700600Y-126704600D02*
X91700600Y-126399800D01*
X91700600Y-126704600D02*
X91700600Y-126704600D01*
X91700600Y-127351600D02*
X91700600Y-127351600D01*
X91700600Y-127351600D02*
X94799400Y-127351600D01*
X92347600Y-124252800D02*
X92347600Y-124252800D01*
X92347600Y-124252800D02*
X92652400Y-124252800D01*
X92347600Y-127351600D02*
X92347600Y-127351600D01*
X92347600Y-127351600D02*
X92652400Y-127351600D01*
X92652400Y-124252800D02*
X92347600Y-124252800D01*
X92652400Y-124252800D02*
X92652400Y-124252800D01*
X92652400Y-127351600D02*
X92347600Y-127351600D01*
X92652400Y-127351600D02*
X92652400Y-127351600D01*
X92847600Y-124252800D02*
X92847600Y-124252800D01*
X92847600Y-124252800D02*
X93152400Y-124252800D01*
X92847600Y-127351600D02*
X92847600Y-127351600D01*
X92847600Y-127351600D02*
X93152400Y-127351600D01*
X93152400Y-124252800D02*
X92847600Y-124252800D01*
X93152400Y-124252800D02*
X93152400Y-124252800D01*
X93152400Y-127351600D02*
X92847600Y-127351600D01*
X93152400Y-127351600D02*
X93152400Y-127351600D01*
X93347600Y-124252800D02*
X93347600Y-124252800D01*
X93347600Y-124252800D02*
X93652400Y-124252800D01*
X93347600Y-127351600D02*
X93347600Y-127351600D01*
X93347600Y-127351600D02*
X93652400Y-127351600D01*
X93652400Y-124252800D02*
X93347600Y-124252800D01*
X93652400Y-124252800D02*
X93652400Y-124252800D01*
X93652400Y-127351600D02*
X93347600Y-127351600D01*
X93652400Y-127351600D02*
X93652400Y-127351600D01*
X93847600Y-124252800D02*
X93847600Y-124252800D01*
X93847600Y-124252800D02*
X94152400Y-124252800D01*
X93847600Y-127351600D02*
X93847600Y-127351600D01*
X93847600Y-127351600D02*
X94152400Y-127351600D01*
X94152400Y-124252800D02*
X93847600Y-124252800D01*
X94152400Y-124252800D02*
X94152400Y-124252800D01*
X94152400Y-127351600D02*
X93847600Y-127351600D01*
X94152400Y-127351600D02*
X94152400Y-127351600D01*
X94799400Y-124252800D02*
X91700600Y-124252800D01*
X94799400Y-124252800D02*
X94799400Y-124252800D01*
X94799400Y-124899800D02*
X94799400Y-124899800D01*
X94799400Y-124899800D02*
X94799400Y-125204600D01*
X94799400Y-125204600D02*
X94799400Y-124899800D01*
X94799400Y-125204600D02*
X94799400Y-125204600D01*
X94799400Y-125399800D02*
X94799400Y-125399800D01*
X94799400Y-125399800D02*
X94799400Y-125704600D01*
X94799400Y-125704600D02*
X94799400Y-125399800D01*
X94799400Y-125704600D02*
X94799400Y-125704600D01*
X94799400Y-125899800D02*
X94799400Y-125899800D01*
X94799400Y-125899800D02*
X94799400Y-126204600D01*
X94799400Y-126204600D02*
X94799400Y-125899800D01*
X94799400Y-126204600D02*
X94799400Y-126204600D01*
X94799400Y-126399800D02*
X94799400Y-126399800D01*
X94799400Y-126399800D02*
X94799400Y-126704600D01*
X94799400Y-126704600D02*
X94799400Y-126399800D01*
X94799400Y-126704600D02*
X94799400Y-126704600D01*
X94799400Y-127351600D02*
X94799400Y-124252800D01*
X94799400Y-127351600D02*
X94799400Y-127351600D01*
%TO.C,R4*%
D15*
X73187500Y-115625000D02*
X75187500Y-115625000D01*
X75187500Y-116875000D01*
X73187500Y-116875000D01*
X73187500Y-115625000D01*
%TO.C,U4*%
X110400000Y-129250000D02*
X110400000Y-132950000D01*
X116100000Y-129250000D02*
X110400000Y-129250000D01*
X116100000Y-129250000D02*
X117100000Y-130250000D01*
X117100000Y-130250000D02*
X117100000Y-132950000D01*
X117100000Y-132950000D02*
X110400000Y-132950000D01*
%TO.C,J2*%
X105150000Y-133300000D02*
X105150000Y-132850000D01*
X105150000Y-133300000D02*
X105400000Y-133300000D01*
X105300000Y-132700000D02*
X105150000Y-132850000D01*
X105300000Y-132700000D02*
X105400000Y-132700000D01*
X105400000Y-132700000D02*
X105400000Y-131700000D01*
X105400000Y-133300000D02*
X105400000Y-134300000D01*
X105800000Y-131500000D02*
X105800000Y-131700000D01*
X105800000Y-131500000D02*
X107600000Y-131500000D01*
X105800000Y-131700000D02*
X105400000Y-131700000D01*
X105800000Y-134300000D02*
X105400000Y-134300000D01*
X105800000Y-134500000D02*
X105800000Y-134300000D01*
X105800000Y-134500000D02*
X107600000Y-134500000D01*
X107600000Y-131500000D02*
X107600000Y-131700000D01*
X107600000Y-134500000D02*
X107600000Y-134300000D01*
X108000000Y-131700000D02*
X107600000Y-131700000D01*
X108000000Y-131700000D02*
X108000000Y-134300000D01*
X108000000Y-134300000D02*
X107600000Y-134300000D01*
%TO.C,C12*%
X132150000Y-120175000D02*
X133400000Y-120175000D01*
X133400000Y-122175000D01*
X132150000Y-122175000D01*
X132150000Y-120175000D01*
%TO.C,U1*%
X129925000Y-123875000D02*
X132175000Y-123875000D01*
X132175000Y-126875000D01*
X129175000Y-126875000D01*
X129175000Y-124625000D01*
X129925000Y-123875000D01*
%TO.C,R8*%
X122650000Y-127287500D02*
X123900000Y-127287500D01*
X123900000Y-129287500D01*
X122650000Y-129287500D01*
X122650000Y-127287500D01*
%TO.C,C11*%
X113125000Y-123000000D02*
X114375000Y-123000000D01*
X114375000Y-125000000D01*
X113125000Y-125000000D01*
X113125000Y-123000000D01*
%TO.C,C1*%
X96875000Y-129450000D02*
X98125000Y-129450000D01*
X98125000Y-131450000D01*
X96875000Y-131450000D01*
X96875000Y-129450000D01*
%TO.C,RV1*%
X106902000Y-123320000D02*
X105375000Y-124847000D01*
X107035000Y-123453000D02*
X105508000Y-124980000D01*
X97945000Y-120590000D02*
X107475000Y-120590000D01*
X107475000Y-125420000D01*
X97945000Y-125420000D01*
X97945000Y-120590000D01*
X107300000Y-124150000D02*
G75*
G02*
X105110000Y-124150000I-1095000J0D01*
G01*
X105110000Y-124150000D02*
G75*
G02*
X107300000Y-124150000I1095000J0D01*
G01*
%TO.C,C2*%
X91000000Y-116875000D02*
X93000000Y-116875000D01*
X93000000Y-118125000D01*
X91000000Y-118125000D01*
X91000000Y-116875000D01*
%TO.C,R1*%
X99625000Y-129412500D02*
X100875000Y-129412500D01*
X100875000Y-131412500D01*
X99625000Y-131412500D01*
X99625000Y-129412500D01*
%TD*%
M02*
