%TF.GenerationSoftware,KiCad,Pcbnew,10.0.3*%
%TF.CreationDate,2026-06-09T09:22:26-07:00*%
%TF.ProjectId,SchindlerRFBoard_V1,53636869-6e64-46c6-9572-5246426f6172,rev?*%
%TF.SameCoordinates,Original*%
%TF.FileFunction,Legend,Top*%
%TF.FilePolarity,Positive*%
%FSLAX46Y46*%
G04 Gerber Fmt 4.6, Leading zero omitted, Abs format (unit mm)*
G04 Created by KiCad (PCBNEW 10.0.3) date 2026-06-09 09:22:26*
%MOMM*%
%LPD*%
G01*
G04 APERTURE LIST*
%ADD10C,0.150000*%
%ADD11C,0.120000*%
%ADD12C,0.100000*%
%ADD13C,0.152400*%
%ADD14C,0.000000*%
%ADD15C,0.127000*%
%ADD16C,0.228600*%
G04 APERTURE END LIST*
D10*
X80761905Y-131854819D02*
X80761905Y-130854819D01*
X80761905Y-130854819D02*
X81000000Y-130854819D01*
X81000000Y-130854819D02*
X81142857Y-130902438D01*
X81142857Y-130902438D02*
X81238095Y-130997676D01*
X81238095Y-130997676D02*
X81285714Y-131092914D01*
X81285714Y-131092914D02*
X81333333Y-131283390D01*
X81333333Y-131283390D02*
X81333333Y-131426247D01*
X81333333Y-131426247D02*
X81285714Y-131616723D01*
X81285714Y-131616723D02*
X81238095Y-131711961D01*
X81238095Y-131711961D02*
X81142857Y-131807200D01*
X81142857Y-131807200D02*
X81000000Y-131854819D01*
X81000000Y-131854819D02*
X80761905Y-131854819D01*
X82285714Y-131854819D02*
X81714286Y-131854819D01*
X82000000Y-131854819D02*
X82000000Y-130854819D01*
X82000000Y-130854819D02*
X81904762Y-130997676D01*
X81904762Y-130997676D02*
X81809524Y-131092914D01*
X81809524Y-131092914D02*
X81714286Y-131140533D01*
X122048809Y-120103628D02*
X122048809Y-120579819D01*
X121715476Y-119579819D02*
X122048809Y-120103628D01*
X122048809Y-120103628D02*
X122382142Y-119579819D01*
X123239285Y-120579819D02*
X122667857Y-120579819D01*
X122953571Y-120579819D02*
X122953571Y-119579819D01*
X122953571Y-119579819D02*
X122858333Y-119722676D01*
X122858333Y-119722676D02*
X122763095Y-119817914D01*
X122763095Y-119817914D02*
X122667857Y-119865533D01*
X91783333Y-122359580D02*
X91735714Y-122407200D01*
X91735714Y-122407200D02*
X91592857Y-122454819D01*
X91592857Y-122454819D02*
X91497619Y-122454819D01*
X91497619Y-122454819D02*
X91354762Y-122407200D01*
X91354762Y-122407200D02*
X91259524Y-122311961D01*
X91259524Y-122311961D02*
X91211905Y-122216723D01*
X91211905Y-122216723D02*
X91164286Y-122026247D01*
X91164286Y-122026247D02*
X91164286Y-121883390D01*
X91164286Y-121883390D02*
X91211905Y-121692914D01*
X91211905Y-121692914D02*
X91259524Y-121597676D01*
X91259524Y-121597676D02*
X91354762Y-121502438D01*
X91354762Y-121502438D02*
X91497619Y-121454819D01*
X91497619Y-121454819D02*
X91592857Y-121454819D01*
X91592857Y-121454819D02*
X91735714Y-121502438D01*
X91735714Y-121502438D02*
X91783333Y-121550057D01*
X92116667Y-121454819D02*
X92735714Y-121454819D01*
X92735714Y-121454819D02*
X92402381Y-121835771D01*
X92402381Y-121835771D02*
X92545238Y-121835771D01*
X92545238Y-121835771D02*
X92640476Y-121883390D01*
X92640476Y-121883390D02*
X92688095Y-121931009D01*
X92688095Y-121931009D02*
X92735714Y-122026247D01*
X92735714Y-122026247D02*
X92735714Y-122264342D01*
X92735714Y-122264342D02*
X92688095Y-122359580D01*
X92688095Y-122359580D02*
X92640476Y-122407200D01*
X92640476Y-122407200D02*
X92545238Y-122454819D01*
X92545238Y-122454819D02*
X92259524Y-122454819D01*
X92259524Y-122454819D02*
X92164286Y-122407200D01*
X92164286Y-122407200D02*
X92116667Y-122359580D01*
X128358333Y-118934580D02*
X128310714Y-118982200D01*
X128310714Y-118982200D02*
X128167857Y-119029819D01*
X128167857Y-119029819D02*
X128072619Y-119029819D01*
X128072619Y-119029819D02*
X127929762Y-118982200D01*
X127929762Y-118982200D02*
X127834524Y-118886961D01*
X127834524Y-118886961D02*
X127786905Y-118791723D01*
X127786905Y-118791723D02*
X127739286Y-118601247D01*
X127739286Y-118601247D02*
X127739286Y-118458390D01*
X127739286Y-118458390D02*
X127786905Y-118267914D01*
X127786905Y-118267914D02*
X127834524Y-118172676D01*
X127834524Y-118172676D02*
X127929762Y-118077438D01*
X127929762Y-118077438D02*
X128072619Y-118029819D01*
X128072619Y-118029819D02*
X128167857Y-118029819D01*
X128167857Y-118029819D02*
X128310714Y-118077438D01*
X128310714Y-118077438D02*
X128358333Y-118125057D01*
X128691667Y-118029819D02*
X129358333Y-118029819D01*
X129358333Y-118029819D02*
X128929762Y-119029819D01*
X71333333Y-124954819D02*
X71000000Y-124478628D01*
X70761905Y-124954819D02*
X70761905Y-123954819D01*
X70761905Y-123954819D02*
X71142857Y-123954819D01*
X71142857Y-123954819D02*
X71238095Y-124002438D01*
X71238095Y-124002438D02*
X71285714Y-124050057D01*
X71285714Y-124050057D02*
X71333333Y-124145295D01*
X71333333Y-124145295D02*
X71333333Y-124288152D01*
X71333333Y-124288152D02*
X71285714Y-124383390D01*
X71285714Y-124383390D02*
X71238095Y-124431009D01*
X71238095Y-124431009D02*
X71142857Y-124478628D01*
X71142857Y-124478628D02*
X70761905Y-124478628D01*
X72238095Y-123954819D02*
X71761905Y-123954819D01*
X71761905Y-123954819D02*
X71714286Y-124431009D01*
X71714286Y-124431009D02*
X71761905Y-124383390D01*
X71761905Y-124383390D02*
X71857143Y-124335771D01*
X71857143Y-124335771D02*
X72095238Y-124335771D01*
X72095238Y-124335771D02*
X72190476Y-124383390D01*
X72190476Y-124383390D02*
X72238095Y-124431009D01*
X72238095Y-124431009D02*
X72285714Y-124526247D01*
X72285714Y-124526247D02*
X72285714Y-124764342D01*
X72285714Y-124764342D02*
X72238095Y-124859580D01*
X72238095Y-124859580D02*
X72190476Y-124907200D01*
X72190476Y-124907200D02*
X72095238Y-124954819D01*
X72095238Y-124954819D02*
X71857143Y-124954819D01*
X71857143Y-124954819D02*
X71761905Y-124907200D01*
X71761905Y-124907200D02*
X71714286Y-124859580D01*
X125608333Y-131329819D02*
X125275000Y-130853628D01*
X125036905Y-131329819D02*
X125036905Y-130329819D01*
X125036905Y-130329819D02*
X125417857Y-130329819D01*
X125417857Y-130329819D02*
X125513095Y-130377438D01*
X125513095Y-130377438D02*
X125560714Y-130425057D01*
X125560714Y-130425057D02*
X125608333Y-130520295D01*
X125608333Y-130520295D02*
X125608333Y-130663152D01*
X125608333Y-130663152D02*
X125560714Y-130758390D01*
X125560714Y-130758390D02*
X125513095Y-130806009D01*
X125513095Y-130806009D02*
X125417857Y-130853628D01*
X125417857Y-130853628D02*
X125036905Y-130853628D01*
X125941667Y-130329819D02*
X126608333Y-130329819D01*
X126608333Y-130329819D02*
X126179762Y-131329819D01*
X85609580Y-121666666D02*
X85657200Y-121714285D01*
X85657200Y-121714285D02*
X85704819Y-121857142D01*
X85704819Y-121857142D02*
X85704819Y-121952380D01*
X85704819Y-121952380D02*
X85657200Y-122095237D01*
X85657200Y-122095237D02*
X85561961Y-122190475D01*
X85561961Y-122190475D02*
X85466723Y-122238094D01*
X85466723Y-122238094D02*
X85276247Y-122285713D01*
X85276247Y-122285713D02*
X85133390Y-122285713D01*
X85133390Y-122285713D02*
X84942914Y-122238094D01*
X84942914Y-122238094D02*
X84847676Y-122190475D01*
X84847676Y-122190475D02*
X84752438Y-122095237D01*
X84752438Y-122095237D02*
X84704819Y-121952380D01*
X84704819Y-121952380D02*
X84704819Y-121857142D01*
X84704819Y-121857142D02*
X84752438Y-121714285D01*
X84752438Y-121714285D02*
X84800057Y-121666666D01*
X85133390Y-121095237D02*
X85085771Y-121190475D01*
X85085771Y-121190475D02*
X85038152Y-121238094D01*
X85038152Y-121238094D02*
X84942914Y-121285713D01*
X84942914Y-121285713D02*
X84895295Y-121285713D01*
X84895295Y-121285713D02*
X84800057Y-121238094D01*
X84800057Y-121238094D02*
X84752438Y-121190475D01*
X84752438Y-121190475D02*
X84704819Y-121095237D01*
X84704819Y-121095237D02*
X84704819Y-120904761D01*
X84704819Y-120904761D02*
X84752438Y-120809523D01*
X84752438Y-120809523D02*
X84800057Y-120761904D01*
X84800057Y-120761904D02*
X84895295Y-120714285D01*
X84895295Y-120714285D02*
X84942914Y-120714285D01*
X84942914Y-120714285D02*
X85038152Y-120761904D01*
X85038152Y-120761904D02*
X85085771Y-120809523D01*
X85085771Y-120809523D02*
X85133390Y-120904761D01*
X85133390Y-120904761D02*
X85133390Y-121095237D01*
X85133390Y-121095237D02*
X85181009Y-121190475D01*
X85181009Y-121190475D02*
X85228628Y-121238094D01*
X85228628Y-121238094D02*
X85323866Y-121285713D01*
X85323866Y-121285713D02*
X85514342Y-121285713D01*
X85514342Y-121285713D02*
X85609580Y-121238094D01*
X85609580Y-121238094D02*
X85657200Y-121190475D01*
X85657200Y-121190475D02*
X85704819Y-121095237D01*
X85704819Y-121095237D02*
X85704819Y-120904761D01*
X85704819Y-120904761D02*
X85657200Y-120809523D01*
X85657200Y-120809523D02*
X85609580Y-120761904D01*
X85609580Y-120761904D02*
X85514342Y-120714285D01*
X85514342Y-120714285D02*
X85323866Y-120714285D01*
X85323866Y-120714285D02*
X85228628Y-120761904D01*
X85228628Y-120761904D02*
X85181009Y-120809523D01*
X85181009Y-120809523D02*
X85133390Y-120904761D01*
X96954819Y-118979166D02*
X96954819Y-119455356D01*
X96954819Y-119455356D02*
X95954819Y-119455356D01*
X96954819Y-118122023D02*
X96954819Y-118693451D01*
X96954819Y-118407737D02*
X95954819Y-118407737D01*
X95954819Y-118407737D02*
X96097676Y-118502975D01*
X96097676Y-118502975D02*
X96192914Y-118598213D01*
X96192914Y-118598213D02*
X96240533Y-118693451D01*
X85704819Y-131416666D02*
X85228628Y-131749999D01*
X85704819Y-131988094D02*
X84704819Y-131988094D01*
X84704819Y-131988094D02*
X84704819Y-131607142D01*
X84704819Y-131607142D02*
X84752438Y-131511904D01*
X84752438Y-131511904D02*
X84800057Y-131464285D01*
X84800057Y-131464285D02*
X84895295Y-131416666D01*
X84895295Y-131416666D02*
X85038152Y-131416666D01*
X85038152Y-131416666D02*
X85133390Y-131464285D01*
X85133390Y-131464285D02*
X85181009Y-131511904D01*
X85181009Y-131511904D02*
X85228628Y-131607142D01*
X85228628Y-131607142D02*
X85228628Y-131988094D01*
X84704819Y-131083332D02*
X84704819Y-130464285D01*
X84704819Y-130464285D02*
X85085771Y-130797618D01*
X85085771Y-130797618D02*
X85085771Y-130654761D01*
X85085771Y-130654761D02*
X85133390Y-130559523D01*
X85133390Y-130559523D02*
X85181009Y-130511904D01*
X85181009Y-130511904D02*
X85276247Y-130464285D01*
X85276247Y-130464285D02*
X85514342Y-130464285D01*
X85514342Y-130464285D02*
X85609580Y-130511904D01*
X85609580Y-130511904D02*
X85657200Y-130559523D01*
X85657200Y-130559523D02*
X85704819Y-130654761D01*
X85704819Y-130654761D02*
X85704819Y-130940475D01*
X85704819Y-130940475D02*
X85657200Y-131035713D01*
X85657200Y-131035713D02*
X85609580Y-131083332D01*
X85704819Y-128166666D02*
X85228628Y-128499999D01*
X85704819Y-128738094D02*
X84704819Y-128738094D01*
X84704819Y-128738094D02*
X84704819Y-128357142D01*
X84704819Y-128357142D02*
X84752438Y-128261904D01*
X84752438Y-128261904D02*
X84800057Y-128214285D01*
X84800057Y-128214285D02*
X84895295Y-128166666D01*
X84895295Y-128166666D02*
X85038152Y-128166666D01*
X85038152Y-128166666D02*
X85133390Y-128214285D01*
X85133390Y-128214285D02*
X85181009Y-128261904D01*
X85181009Y-128261904D02*
X85228628Y-128357142D01*
X85228628Y-128357142D02*
X85228628Y-128738094D01*
X84800057Y-127785713D02*
X84752438Y-127738094D01*
X84752438Y-127738094D02*
X84704819Y-127642856D01*
X84704819Y-127642856D02*
X84704819Y-127404761D01*
X84704819Y-127404761D02*
X84752438Y-127309523D01*
X84752438Y-127309523D02*
X84800057Y-127261904D01*
X84800057Y-127261904D02*
X84895295Y-127214285D01*
X84895295Y-127214285D02*
X84990533Y-127214285D01*
X84990533Y-127214285D02*
X85133390Y-127261904D01*
X85133390Y-127261904D02*
X85704819Y-127833332D01*
X85704819Y-127833332D02*
X85704819Y-127214285D01*
X108266666Y-116454819D02*
X108266666Y-117169104D01*
X108266666Y-117169104D02*
X108219047Y-117311961D01*
X108219047Y-117311961D02*
X108123809Y-117407200D01*
X108123809Y-117407200D02*
X107980952Y-117454819D01*
X107980952Y-117454819D02*
X107885714Y-117454819D01*
X109266666Y-117454819D02*
X108695238Y-117454819D01*
X108980952Y-117454819D02*
X108980952Y-116454819D01*
X108980952Y-116454819D02*
X108885714Y-116597676D01*
X108885714Y-116597676D02*
X108790476Y-116692914D01*
X108790476Y-116692914D02*
X108695238Y-116740533D01*
X81179580Y-126966666D02*
X81227200Y-127014285D01*
X81227200Y-127014285D02*
X81274819Y-127157142D01*
X81274819Y-127157142D02*
X81274819Y-127252380D01*
X81274819Y-127252380D02*
X81227200Y-127395237D01*
X81227200Y-127395237D02*
X81131961Y-127490475D01*
X81131961Y-127490475D02*
X81036723Y-127538094D01*
X81036723Y-127538094D02*
X80846247Y-127585713D01*
X80846247Y-127585713D02*
X80703390Y-127585713D01*
X80703390Y-127585713D02*
X80512914Y-127538094D01*
X80512914Y-127538094D02*
X80417676Y-127490475D01*
X80417676Y-127490475D02*
X80322438Y-127395237D01*
X80322438Y-127395237D02*
X80274819Y-127252380D01*
X80274819Y-127252380D02*
X80274819Y-127157142D01*
X80274819Y-127157142D02*
X80322438Y-127014285D01*
X80322438Y-127014285D02*
X80370057Y-126966666D01*
X80608152Y-126109523D02*
X81274819Y-126109523D01*
X80227200Y-126347618D02*
X80941485Y-126585713D01*
X80941485Y-126585713D02*
X80941485Y-125966666D01*
X109929580Y-124592857D02*
X109977200Y-124640476D01*
X109977200Y-124640476D02*
X110024819Y-124783333D01*
X110024819Y-124783333D02*
X110024819Y-124878571D01*
X110024819Y-124878571D02*
X109977200Y-125021428D01*
X109977200Y-125021428D02*
X109881961Y-125116666D01*
X109881961Y-125116666D02*
X109786723Y-125164285D01*
X109786723Y-125164285D02*
X109596247Y-125211904D01*
X109596247Y-125211904D02*
X109453390Y-125211904D01*
X109453390Y-125211904D02*
X109262914Y-125164285D01*
X109262914Y-125164285D02*
X109167676Y-125116666D01*
X109167676Y-125116666D02*
X109072438Y-125021428D01*
X109072438Y-125021428D02*
X109024819Y-124878571D01*
X109024819Y-124878571D02*
X109024819Y-124783333D01*
X109024819Y-124783333D02*
X109072438Y-124640476D01*
X109072438Y-124640476D02*
X109120057Y-124592857D01*
X110024819Y-123640476D02*
X110024819Y-124211904D01*
X110024819Y-123926190D02*
X109024819Y-123926190D01*
X109024819Y-123926190D02*
X109167676Y-124021428D01*
X109167676Y-124021428D02*
X109262914Y-124116666D01*
X109262914Y-124116666D02*
X109310533Y-124211904D01*
X109024819Y-123021428D02*
X109024819Y-122926190D01*
X109024819Y-122926190D02*
X109072438Y-122830952D01*
X109072438Y-122830952D02*
X109120057Y-122783333D01*
X109120057Y-122783333D02*
X109215295Y-122735714D01*
X109215295Y-122735714D02*
X109405771Y-122688095D01*
X109405771Y-122688095D02*
X109643866Y-122688095D01*
X109643866Y-122688095D02*
X109834342Y-122735714D01*
X109834342Y-122735714D02*
X109929580Y-122783333D01*
X109929580Y-122783333D02*
X109977200Y-122830952D01*
X109977200Y-122830952D02*
X110024819Y-122926190D01*
X110024819Y-122926190D02*
X110024819Y-123021428D01*
X110024819Y-123021428D02*
X109977200Y-123116666D01*
X109977200Y-123116666D02*
X109929580Y-123164285D01*
X109929580Y-123164285D02*
X109834342Y-123211904D01*
X109834342Y-123211904D02*
X109643866Y-123259523D01*
X109643866Y-123259523D02*
X109405771Y-123259523D01*
X109405771Y-123259523D02*
X109215295Y-123211904D01*
X109215295Y-123211904D02*
X109120057Y-123164285D01*
X109120057Y-123164285D02*
X109072438Y-123116666D01*
X109072438Y-123116666D02*
X109024819Y-123021428D01*
X85609580Y-125392857D02*
X85657200Y-125440476D01*
X85657200Y-125440476D02*
X85704819Y-125583333D01*
X85704819Y-125583333D02*
X85704819Y-125678571D01*
X85704819Y-125678571D02*
X85657200Y-125821428D01*
X85657200Y-125821428D02*
X85561961Y-125916666D01*
X85561961Y-125916666D02*
X85466723Y-125964285D01*
X85466723Y-125964285D02*
X85276247Y-126011904D01*
X85276247Y-126011904D02*
X85133390Y-126011904D01*
X85133390Y-126011904D02*
X84942914Y-125964285D01*
X84942914Y-125964285D02*
X84847676Y-125916666D01*
X84847676Y-125916666D02*
X84752438Y-125821428D01*
X84752438Y-125821428D02*
X84704819Y-125678571D01*
X84704819Y-125678571D02*
X84704819Y-125583333D01*
X84704819Y-125583333D02*
X84752438Y-125440476D01*
X84752438Y-125440476D02*
X84800057Y-125392857D01*
X85704819Y-124440476D02*
X85704819Y-125011904D01*
X85704819Y-124726190D02*
X84704819Y-124726190D01*
X84704819Y-124726190D02*
X84847676Y-124821428D01*
X84847676Y-124821428D02*
X84942914Y-124916666D01*
X84942914Y-124916666D02*
X84990533Y-125011904D01*
X84704819Y-124107142D02*
X84704819Y-123488095D01*
X84704819Y-123488095D02*
X85085771Y-123821428D01*
X85085771Y-123821428D02*
X85085771Y-123678571D01*
X85085771Y-123678571D02*
X85133390Y-123583333D01*
X85133390Y-123583333D02*
X85181009Y-123535714D01*
X85181009Y-123535714D02*
X85276247Y-123488095D01*
X85276247Y-123488095D02*
X85514342Y-123488095D01*
X85514342Y-123488095D02*
X85609580Y-123535714D01*
X85609580Y-123535714D02*
X85657200Y-123583333D01*
X85657200Y-123583333D02*
X85704819Y-123678571D01*
X85704819Y-123678571D02*
X85704819Y-123964285D01*
X85704819Y-123964285D02*
X85657200Y-124059523D01*
X85657200Y-124059523D02*
X85609580Y-124107142D01*
X71183333Y-119204819D02*
X70707143Y-119204819D01*
X70707143Y-119204819D02*
X70707143Y-118204819D01*
X71469048Y-118300057D02*
X71516667Y-118252438D01*
X71516667Y-118252438D02*
X71611905Y-118204819D01*
X71611905Y-118204819D02*
X71850000Y-118204819D01*
X71850000Y-118204819D02*
X71945238Y-118252438D01*
X71945238Y-118252438D02*
X71992857Y-118300057D01*
X71992857Y-118300057D02*
X72040476Y-118395295D01*
X72040476Y-118395295D02*
X72040476Y-118490533D01*
X72040476Y-118490533D02*
X71992857Y-118633390D01*
X71992857Y-118633390D02*
X71421429Y-119204819D01*
X71421429Y-119204819D02*
X72040476Y-119204819D01*
X71333333Y-121859580D02*
X71285714Y-121907200D01*
X71285714Y-121907200D02*
X71142857Y-121954819D01*
X71142857Y-121954819D02*
X71047619Y-121954819D01*
X71047619Y-121954819D02*
X70904762Y-121907200D01*
X70904762Y-121907200D02*
X70809524Y-121811961D01*
X70809524Y-121811961D02*
X70761905Y-121716723D01*
X70761905Y-121716723D02*
X70714286Y-121526247D01*
X70714286Y-121526247D02*
X70714286Y-121383390D01*
X70714286Y-121383390D02*
X70761905Y-121192914D01*
X70761905Y-121192914D02*
X70809524Y-121097676D01*
X70809524Y-121097676D02*
X70904762Y-121002438D01*
X70904762Y-121002438D02*
X71047619Y-120954819D01*
X71047619Y-120954819D02*
X71142857Y-120954819D01*
X71142857Y-120954819D02*
X71285714Y-121002438D01*
X71285714Y-121002438D02*
X71333333Y-121050057D01*
X72238095Y-120954819D02*
X71761905Y-120954819D01*
X71761905Y-120954819D02*
X71714286Y-121431009D01*
X71714286Y-121431009D02*
X71761905Y-121383390D01*
X71761905Y-121383390D02*
X71857143Y-121335771D01*
X71857143Y-121335771D02*
X72095238Y-121335771D01*
X72095238Y-121335771D02*
X72190476Y-121383390D01*
X72190476Y-121383390D02*
X72238095Y-121431009D01*
X72238095Y-121431009D02*
X72285714Y-121526247D01*
X72285714Y-121526247D02*
X72285714Y-121764342D01*
X72285714Y-121764342D02*
X72238095Y-121859580D01*
X72238095Y-121859580D02*
X72190476Y-121907200D01*
X72190476Y-121907200D02*
X72095238Y-121954819D01*
X72095238Y-121954819D02*
X71857143Y-121954819D01*
X71857143Y-121954819D02*
X71761905Y-121907200D01*
X71761905Y-121907200D02*
X71714286Y-121859580D01*
X73966666Y-129354819D02*
X73966666Y-130069104D01*
X73966666Y-130069104D02*
X73919047Y-130211961D01*
X73919047Y-130211961D02*
X73823809Y-130307200D01*
X73823809Y-130307200D02*
X73680952Y-130354819D01*
X73680952Y-130354819D02*
X73585714Y-130354819D01*
X74347619Y-129354819D02*
X74966666Y-129354819D01*
X74966666Y-129354819D02*
X74633333Y-129735771D01*
X74633333Y-129735771D02*
X74776190Y-129735771D01*
X74776190Y-129735771D02*
X74871428Y-129783390D01*
X74871428Y-129783390D02*
X74919047Y-129831009D01*
X74919047Y-129831009D02*
X74966666Y-129926247D01*
X74966666Y-129926247D02*
X74966666Y-130164342D01*
X74966666Y-130164342D02*
X74919047Y-130259580D01*
X74919047Y-130259580D02*
X74871428Y-130307200D01*
X74871428Y-130307200D02*
X74776190Y-130354819D01*
X74776190Y-130354819D02*
X74490476Y-130354819D01*
X74490476Y-130354819D02*
X74395238Y-130307200D01*
X74395238Y-130307200D02*
X74347619Y-130259580D01*
X72609523Y-136954819D02*
X72276190Y-136478628D01*
X72038095Y-136954819D02*
X72038095Y-135954819D01*
X72038095Y-135954819D02*
X72419047Y-135954819D01*
X72419047Y-135954819D02*
X72514285Y-136002438D01*
X72514285Y-136002438D02*
X72561904Y-136050057D01*
X72561904Y-136050057D02*
X72609523Y-136145295D01*
X72609523Y-136145295D02*
X72609523Y-136288152D01*
X72609523Y-136288152D02*
X72561904Y-136383390D01*
X72561904Y-136383390D02*
X72514285Y-136431009D01*
X72514285Y-136431009D02*
X72419047Y-136478628D01*
X72419047Y-136478628D02*
X72038095Y-136478628D01*
X73371428Y-136431009D02*
X73038095Y-136431009D01*
X73038095Y-136954819D02*
X73038095Y-135954819D01*
X73038095Y-135954819D02*
X73514285Y-135954819D01*
X74800000Y-136954819D02*
X74704762Y-136907200D01*
X74704762Y-136907200D02*
X74657143Y-136859580D01*
X74657143Y-136859580D02*
X74609524Y-136764342D01*
X74609524Y-136764342D02*
X74609524Y-136478628D01*
X74609524Y-136478628D02*
X74657143Y-136383390D01*
X74657143Y-136383390D02*
X74704762Y-136335771D01*
X74704762Y-136335771D02*
X74800000Y-136288152D01*
X74800000Y-136288152D02*
X74942857Y-136288152D01*
X74942857Y-136288152D02*
X75038095Y-136335771D01*
X75038095Y-136335771D02*
X75085714Y-136383390D01*
X75085714Y-136383390D02*
X75133333Y-136478628D01*
X75133333Y-136478628D02*
X75133333Y-136764342D01*
X75133333Y-136764342D02*
X75085714Y-136859580D01*
X75085714Y-136859580D02*
X75038095Y-136907200D01*
X75038095Y-136907200D02*
X74942857Y-136954819D01*
X74942857Y-136954819D02*
X74800000Y-136954819D01*
X75990476Y-136288152D02*
X75990476Y-136954819D01*
X75561905Y-136288152D02*
X75561905Y-136811961D01*
X75561905Y-136811961D02*
X75609524Y-136907200D01*
X75609524Y-136907200D02*
X75704762Y-136954819D01*
X75704762Y-136954819D02*
X75847619Y-136954819D01*
X75847619Y-136954819D02*
X75942857Y-136907200D01*
X75942857Y-136907200D02*
X75990476Y-136859580D01*
X76323810Y-136288152D02*
X76704762Y-136288152D01*
X76466667Y-135954819D02*
X76466667Y-136811961D01*
X76466667Y-136811961D02*
X76514286Y-136907200D01*
X76514286Y-136907200D02*
X76609524Y-136954819D01*
X76609524Y-136954819D02*
X76704762Y-136954819D01*
X79539580Y-128466666D02*
X79587200Y-128514285D01*
X79587200Y-128514285D02*
X79634819Y-128657142D01*
X79634819Y-128657142D02*
X79634819Y-128752380D01*
X79634819Y-128752380D02*
X79587200Y-128895237D01*
X79587200Y-128895237D02*
X79491961Y-128990475D01*
X79491961Y-128990475D02*
X79396723Y-129038094D01*
X79396723Y-129038094D02*
X79206247Y-129085713D01*
X79206247Y-129085713D02*
X79063390Y-129085713D01*
X79063390Y-129085713D02*
X78872914Y-129038094D01*
X78872914Y-129038094D02*
X78777676Y-128990475D01*
X78777676Y-128990475D02*
X78682438Y-128895237D01*
X78682438Y-128895237D02*
X78634819Y-128752380D01*
X78634819Y-128752380D02*
X78634819Y-128657142D01*
X78634819Y-128657142D02*
X78682438Y-128514285D01*
X78682438Y-128514285D02*
X78730057Y-128466666D01*
X78634819Y-127609523D02*
X78634819Y-127799999D01*
X78634819Y-127799999D02*
X78682438Y-127895237D01*
X78682438Y-127895237D02*
X78730057Y-127942856D01*
X78730057Y-127942856D02*
X78872914Y-128038094D01*
X78872914Y-128038094D02*
X79063390Y-128085713D01*
X79063390Y-128085713D02*
X79444342Y-128085713D01*
X79444342Y-128085713D02*
X79539580Y-128038094D01*
X79539580Y-128038094D02*
X79587200Y-127990475D01*
X79587200Y-127990475D02*
X79634819Y-127895237D01*
X79634819Y-127895237D02*
X79634819Y-127704761D01*
X79634819Y-127704761D02*
X79587200Y-127609523D01*
X79587200Y-127609523D02*
X79539580Y-127561904D01*
X79539580Y-127561904D02*
X79444342Y-127514285D01*
X79444342Y-127514285D02*
X79206247Y-127514285D01*
X79206247Y-127514285D02*
X79111009Y-127561904D01*
X79111009Y-127561904D02*
X79063390Y-127609523D01*
X79063390Y-127609523D02*
X79015771Y-127704761D01*
X79015771Y-127704761D02*
X79015771Y-127895237D01*
X79015771Y-127895237D02*
X79063390Y-127990475D01*
X79063390Y-127990475D02*
X79111009Y-128038094D01*
X79111009Y-128038094D02*
X79206247Y-128085713D01*
X94583333Y-133359580D02*
X94535714Y-133407200D01*
X94535714Y-133407200D02*
X94392857Y-133454819D01*
X94392857Y-133454819D02*
X94297619Y-133454819D01*
X94297619Y-133454819D02*
X94154762Y-133407200D01*
X94154762Y-133407200D02*
X94059524Y-133311961D01*
X94059524Y-133311961D02*
X94011905Y-133216723D01*
X94011905Y-133216723D02*
X93964286Y-133026247D01*
X93964286Y-133026247D02*
X93964286Y-132883390D01*
X93964286Y-132883390D02*
X94011905Y-132692914D01*
X94011905Y-132692914D02*
X94059524Y-132597676D01*
X94059524Y-132597676D02*
X94154762Y-132502438D01*
X94154762Y-132502438D02*
X94297619Y-132454819D01*
X94297619Y-132454819D02*
X94392857Y-132454819D01*
X94392857Y-132454819D02*
X94535714Y-132502438D01*
X94535714Y-132502438D02*
X94583333Y-132550057D01*
X95059524Y-133454819D02*
X95250000Y-133454819D01*
X95250000Y-133454819D02*
X95345238Y-133407200D01*
X95345238Y-133407200D02*
X95392857Y-133359580D01*
X95392857Y-133359580D02*
X95488095Y-133216723D01*
X95488095Y-133216723D02*
X95535714Y-133026247D01*
X95535714Y-133026247D02*
X95535714Y-132645295D01*
X95535714Y-132645295D02*
X95488095Y-132550057D01*
X95488095Y-132550057D02*
X95440476Y-132502438D01*
X95440476Y-132502438D02*
X95345238Y-132454819D01*
X95345238Y-132454819D02*
X95154762Y-132454819D01*
X95154762Y-132454819D02*
X95059524Y-132502438D01*
X95059524Y-132502438D02*
X95011905Y-132550057D01*
X95011905Y-132550057D02*
X94964286Y-132645295D01*
X94964286Y-132645295D02*
X94964286Y-132883390D01*
X94964286Y-132883390D02*
X95011905Y-132978628D01*
X95011905Y-132978628D02*
X95059524Y-133026247D01*
X95059524Y-133026247D02*
X95154762Y-133073866D01*
X95154762Y-133073866D02*
X95345238Y-133073866D01*
X95345238Y-133073866D02*
X95440476Y-133026247D01*
X95440476Y-133026247D02*
X95488095Y-132978628D01*
X95488095Y-132978628D02*
X95535714Y-132883390D01*
X71333333Y-127954819D02*
X71000000Y-127478628D01*
X70761905Y-127954819D02*
X70761905Y-126954819D01*
X70761905Y-126954819D02*
X71142857Y-126954819D01*
X71142857Y-126954819D02*
X71238095Y-127002438D01*
X71238095Y-127002438D02*
X71285714Y-127050057D01*
X71285714Y-127050057D02*
X71333333Y-127145295D01*
X71333333Y-127145295D02*
X71333333Y-127288152D01*
X71333333Y-127288152D02*
X71285714Y-127383390D01*
X71285714Y-127383390D02*
X71238095Y-127431009D01*
X71238095Y-127431009D02*
X71142857Y-127478628D01*
X71142857Y-127478628D02*
X70761905Y-127478628D01*
X72190476Y-126954819D02*
X72000000Y-126954819D01*
X72000000Y-126954819D02*
X71904762Y-127002438D01*
X71904762Y-127002438D02*
X71857143Y-127050057D01*
X71857143Y-127050057D02*
X71761905Y-127192914D01*
X71761905Y-127192914D02*
X71714286Y-127383390D01*
X71714286Y-127383390D02*
X71714286Y-127764342D01*
X71714286Y-127764342D02*
X71761905Y-127859580D01*
X71761905Y-127859580D02*
X71809524Y-127907200D01*
X71809524Y-127907200D02*
X71904762Y-127954819D01*
X71904762Y-127954819D02*
X72095238Y-127954819D01*
X72095238Y-127954819D02*
X72190476Y-127907200D01*
X72190476Y-127907200D02*
X72238095Y-127859580D01*
X72238095Y-127859580D02*
X72285714Y-127764342D01*
X72285714Y-127764342D02*
X72285714Y-127526247D01*
X72285714Y-127526247D02*
X72238095Y-127431009D01*
X72238095Y-127431009D02*
X72190476Y-127383390D01*
X72190476Y-127383390D02*
X72095238Y-127335771D01*
X72095238Y-127335771D02*
X71904762Y-127335771D01*
X71904762Y-127335771D02*
X71809524Y-127383390D01*
X71809524Y-127383390D02*
X71761905Y-127431009D01*
X71761905Y-127431009D02*
X71714286Y-127526247D01*
X90938095Y-128154819D02*
X90938095Y-128964342D01*
X90938095Y-128964342D02*
X90985714Y-129059580D01*
X90985714Y-129059580D02*
X91033333Y-129107200D01*
X91033333Y-129107200D02*
X91128571Y-129154819D01*
X91128571Y-129154819D02*
X91319047Y-129154819D01*
X91319047Y-129154819D02*
X91414285Y-129107200D01*
X91414285Y-129107200D02*
X91461904Y-129059580D01*
X91461904Y-129059580D02*
X91509523Y-128964342D01*
X91509523Y-128964342D02*
X91509523Y-128154819D01*
X91938095Y-128250057D02*
X91985714Y-128202438D01*
X91985714Y-128202438D02*
X92080952Y-128154819D01*
X92080952Y-128154819D02*
X92319047Y-128154819D01*
X92319047Y-128154819D02*
X92414285Y-128202438D01*
X92414285Y-128202438D02*
X92461904Y-128250057D01*
X92461904Y-128250057D02*
X92509523Y-128345295D01*
X92509523Y-128345295D02*
X92509523Y-128440533D01*
X92509523Y-128440533D02*
X92461904Y-128583390D01*
X92461904Y-128583390D02*
X91890476Y-129154819D01*
X91890476Y-129154819D02*
X92509523Y-129154819D01*
X71233333Y-116704819D02*
X70900000Y-116228628D01*
X70661905Y-116704819D02*
X70661905Y-115704819D01*
X70661905Y-115704819D02*
X71042857Y-115704819D01*
X71042857Y-115704819D02*
X71138095Y-115752438D01*
X71138095Y-115752438D02*
X71185714Y-115800057D01*
X71185714Y-115800057D02*
X71233333Y-115895295D01*
X71233333Y-115895295D02*
X71233333Y-116038152D01*
X71233333Y-116038152D02*
X71185714Y-116133390D01*
X71185714Y-116133390D02*
X71138095Y-116181009D01*
X71138095Y-116181009D02*
X71042857Y-116228628D01*
X71042857Y-116228628D02*
X70661905Y-116228628D01*
X72090476Y-116038152D02*
X72090476Y-116704819D01*
X71852381Y-115657200D02*
X71614286Y-116371485D01*
X71614286Y-116371485D02*
X72233333Y-116371485D01*
X117704819Y-131861904D02*
X118514342Y-131861904D01*
X118514342Y-131861904D02*
X118609580Y-131814285D01*
X118609580Y-131814285D02*
X118657200Y-131766666D01*
X118657200Y-131766666D02*
X118704819Y-131671428D01*
X118704819Y-131671428D02*
X118704819Y-131480952D01*
X118704819Y-131480952D02*
X118657200Y-131385714D01*
X118657200Y-131385714D02*
X118609580Y-131338095D01*
X118609580Y-131338095D02*
X118514342Y-131290476D01*
X118514342Y-131290476D02*
X117704819Y-131290476D01*
X118038152Y-130385714D02*
X118704819Y-130385714D01*
X117657200Y-130623809D02*
X118371485Y-130861904D01*
X118371485Y-130861904D02*
X118371485Y-130242857D01*
X106366666Y-129254819D02*
X106366666Y-129969104D01*
X106366666Y-129969104D02*
X106319047Y-130111961D01*
X106319047Y-130111961D02*
X106223809Y-130207200D01*
X106223809Y-130207200D02*
X106080952Y-130254819D01*
X106080952Y-130254819D02*
X105985714Y-130254819D01*
X106795238Y-129350057D02*
X106842857Y-129302438D01*
X106842857Y-129302438D02*
X106938095Y-129254819D01*
X106938095Y-129254819D02*
X107176190Y-129254819D01*
X107176190Y-129254819D02*
X107271428Y-129302438D01*
X107271428Y-129302438D02*
X107319047Y-129350057D01*
X107319047Y-129350057D02*
X107366666Y-129445295D01*
X107366666Y-129445295D02*
X107366666Y-129540533D01*
X107366666Y-129540533D02*
X107319047Y-129683390D01*
X107319047Y-129683390D02*
X106747619Y-130254819D01*
X106747619Y-130254819D02*
X107366666Y-130254819D01*
X103723810Y-136154819D02*
X104057143Y-137154819D01*
X104057143Y-137154819D02*
X104390476Y-136154819D01*
X104723810Y-137154819D02*
X104723810Y-136488152D01*
X104723810Y-136154819D02*
X104676191Y-136202438D01*
X104676191Y-136202438D02*
X104723810Y-136250057D01*
X104723810Y-136250057D02*
X104771429Y-136202438D01*
X104771429Y-136202438D02*
X104723810Y-136154819D01*
X104723810Y-136154819D02*
X104723810Y-136250057D01*
X105628571Y-137154819D02*
X105628571Y-136154819D01*
X105628571Y-137107200D02*
X105533333Y-137154819D01*
X105533333Y-137154819D02*
X105342857Y-137154819D01*
X105342857Y-137154819D02*
X105247619Y-137107200D01*
X105247619Y-137107200D02*
X105200000Y-137059580D01*
X105200000Y-137059580D02*
X105152381Y-136964342D01*
X105152381Y-136964342D02*
X105152381Y-136678628D01*
X105152381Y-136678628D02*
X105200000Y-136583390D01*
X105200000Y-136583390D02*
X105247619Y-136535771D01*
X105247619Y-136535771D02*
X105342857Y-136488152D01*
X105342857Y-136488152D02*
X105533333Y-136488152D01*
X105533333Y-136488152D02*
X105628571Y-136535771D01*
X106485714Y-137107200D02*
X106390476Y-137154819D01*
X106390476Y-137154819D02*
X106200000Y-137154819D01*
X106200000Y-137154819D02*
X106104762Y-137107200D01*
X106104762Y-137107200D02*
X106057143Y-137011961D01*
X106057143Y-137011961D02*
X106057143Y-136631009D01*
X106057143Y-136631009D02*
X106104762Y-136535771D01*
X106104762Y-136535771D02*
X106200000Y-136488152D01*
X106200000Y-136488152D02*
X106390476Y-136488152D01*
X106390476Y-136488152D02*
X106485714Y-136535771D01*
X106485714Y-136535771D02*
X106533333Y-136631009D01*
X106533333Y-136631009D02*
X106533333Y-136726247D01*
X106533333Y-136726247D02*
X106057143Y-136821485D01*
X107104762Y-137154819D02*
X107009524Y-137107200D01*
X107009524Y-137107200D02*
X106961905Y-137059580D01*
X106961905Y-137059580D02*
X106914286Y-136964342D01*
X106914286Y-136964342D02*
X106914286Y-136678628D01*
X106914286Y-136678628D02*
X106961905Y-136583390D01*
X106961905Y-136583390D02*
X107009524Y-136535771D01*
X107009524Y-136535771D02*
X107104762Y-136488152D01*
X107104762Y-136488152D02*
X107247619Y-136488152D01*
X107247619Y-136488152D02*
X107342857Y-136535771D01*
X107342857Y-136535771D02*
X107390476Y-136583390D01*
X107390476Y-136583390D02*
X107438095Y-136678628D01*
X107438095Y-136678628D02*
X107438095Y-136964342D01*
X107438095Y-136964342D02*
X107390476Y-137059580D01*
X107390476Y-137059580D02*
X107342857Y-137107200D01*
X107342857Y-137107200D02*
X107247619Y-137154819D01*
X107247619Y-137154819D02*
X107104762Y-137154819D01*
X108628572Y-137154819D02*
X108628572Y-136488152D01*
X108628572Y-136154819D02*
X108580953Y-136202438D01*
X108580953Y-136202438D02*
X108628572Y-136250057D01*
X108628572Y-136250057D02*
X108676191Y-136202438D01*
X108676191Y-136202438D02*
X108628572Y-136154819D01*
X108628572Y-136154819D02*
X108628572Y-136250057D01*
X109104762Y-136488152D02*
X109104762Y-137154819D01*
X109104762Y-136583390D02*
X109152381Y-136535771D01*
X109152381Y-136535771D02*
X109247619Y-136488152D01*
X109247619Y-136488152D02*
X109390476Y-136488152D01*
X109390476Y-136488152D02*
X109485714Y-136535771D01*
X109485714Y-136535771D02*
X109533333Y-136631009D01*
X109533333Y-136631009D02*
X109533333Y-137154819D01*
X81987500Y-118634300D02*
X81987500Y-119444455D01*
X81987500Y-119444455D02*
X82035157Y-119539767D01*
X82035157Y-119539767D02*
X82082813Y-119587424D01*
X82082813Y-119587424D02*
X82178125Y-119635080D01*
X82178125Y-119635080D02*
X82368750Y-119635080D01*
X82368750Y-119635080D02*
X82464062Y-119587424D01*
X82464062Y-119587424D02*
X82511719Y-119539767D01*
X82511719Y-119539767D02*
X82559375Y-119444455D01*
X82559375Y-119444455D02*
X82559375Y-118634300D01*
X82940624Y-118634300D02*
X83560155Y-118634300D01*
X83560155Y-118634300D02*
X83226561Y-119015549D01*
X83226561Y-119015549D02*
X83369530Y-119015549D01*
X83369530Y-119015549D02*
X83464842Y-119063205D01*
X83464842Y-119063205D02*
X83512498Y-119110862D01*
X83512498Y-119110862D02*
X83560155Y-119206174D01*
X83560155Y-119206174D02*
X83560155Y-119444455D01*
X83560155Y-119444455D02*
X83512498Y-119539767D01*
X83512498Y-119539767D02*
X83464842Y-119587424D01*
X83464842Y-119587424D02*
X83369530Y-119635080D01*
X83369530Y-119635080D02*
X83083593Y-119635080D01*
X83083593Y-119635080D02*
X82988280Y-119587424D01*
X82988280Y-119587424D02*
X82940624Y-119539767D01*
X132132142Y-118984580D02*
X132084523Y-119032200D01*
X132084523Y-119032200D02*
X131941666Y-119079819D01*
X131941666Y-119079819D02*
X131846428Y-119079819D01*
X131846428Y-119079819D02*
X131703571Y-119032200D01*
X131703571Y-119032200D02*
X131608333Y-118936961D01*
X131608333Y-118936961D02*
X131560714Y-118841723D01*
X131560714Y-118841723D02*
X131513095Y-118651247D01*
X131513095Y-118651247D02*
X131513095Y-118508390D01*
X131513095Y-118508390D02*
X131560714Y-118317914D01*
X131560714Y-118317914D02*
X131608333Y-118222676D01*
X131608333Y-118222676D02*
X131703571Y-118127438D01*
X131703571Y-118127438D02*
X131846428Y-118079819D01*
X131846428Y-118079819D02*
X131941666Y-118079819D01*
X131941666Y-118079819D02*
X132084523Y-118127438D01*
X132084523Y-118127438D02*
X132132142Y-118175057D01*
X133084523Y-119079819D02*
X132513095Y-119079819D01*
X132798809Y-119079819D02*
X132798809Y-118079819D01*
X132798809Y-118079819D02*
X132703571Y-118222676D01*
X132703571Y-118222676D02*
X132608333Y-118317914D01*
X132608333Y-118317914D02*
X132513095Y-118365533D01*
X133465476Y-118175057D02*
X133513095Y-118127438D01*
X133513095Y-118127438D02*
X133608333Y-118079819D01*
X133608333Y-118079819D02*
X133846428Y-118079819D01*
X133846428Y-118079819D02*
X133941666Y-118127438D01*
X133941666Y-118127438D02*
X133989285Y-118175057D01*
X133989285Y-118175057D02*
X134036904Y-118270295D01*
X134036904Y-118270295D02*
X134036904Y-118365533D01*
X134036904Y-118365533D02*
X133989285Y-118508390D01*
X133989285Y-118508390D02*
X133417857Y-119079819D01*
X133417857Y-119079819D02*
X134036904Y-119079819D01*
X129938095Y-127354819D02*
X129938095Y-128164342D01*
X129938095Y-128164342D02*
X129985714Y-128259580D01*
X129985714Y-128259580D02*
X130033333Y-128307200D01*
X130033333Y-128307200D02*
X130128571Y-128354819D01*
X130128571Y-128354819D02*
X130319047Y-128354819D01*
X130319047Y-128354819D02*
X130414285Y-128307200D01*
X130414285Y-128307200D02*
X130461904Y-128259580D01*
X130461904Y-128259580D02*
X130509523Y-128164342D01*
X130509523Y-128164342D02*
X130509523Y-127354819D01*
X131509523Y-128354819D02*
X130938095Y-128354819D01*
X131223809Y-128354819D02*
X131223809Y-127354819D01*
X131223809Y-127354819D02*
X131128571Y-127497676D01*
X131128571Y-127497676D02*
X131033333Y-127592914D01*
X131033333Y-127592914D02*
X130938095Y-127640533D01*
X123108333Y-131329819D02*
X122775000Y-130853628D01*
X122536905Y-131329819D02*
X122536905Y-130329819D01*
X122536905Y-130329819D02*
X122917857Y-130329819D01*
X122917857Y-130329819D02*
X123013095Y-130377438D01*
X123013095Y-130377438D02*
X123060714Y-130425057D01*
X123060714Y-130425057D02*
X123108333Y-130520295D01*
X123108333Y-130520295D02*
X123108333Y-130663152D01*
X123108333Y-130663152D02*
X123060714Y-130758390D01*
X123060714Y-130758390D02*
X123013095Y-130806009D01*
X123013095Y-130806009D02*
X122917857Y-130853628D01*
X122917857Y-130853628D02*
X122536905Y-130853628D01*
X123679762Y-130758390D02*
X123584524Y-130710771D01*
X123584524Y-130710771D02*
X123536905Y-130663152D01*
X123536905Y-130663152D02*
X123489286Y-130567914D01*
X123489286Y-130567914D02*
X123489286Y-130520295D01*
X123489286Y-130520295D02*
X123536905Y-130425057D01*
X123536905Y-130425057D02*
X123584524Y-130377438D01*
X123584524Y-130377438D02*
X123679762Y-130329819D01*
X123679762Y-130329819D02*
X123870238Y-130329819D01*
X123870238Y-130329819D02*
X123965476Y-130377438D01*
X123965476Y-130377438D02*
X124013095Y-130425057D01*
X124013095Y-130425057D02*
X124060714Y-130520295D01*
X124060714Y-130520295D02*
X124060714Y-130567914D01*
X124060714Y-130567914D02*
X124013095Y-130663152D01*
X124013095Y-130663152D02*
X123965476Y-130710771D01*
X123965476Y-130710771D02*
X123870238Y-130758390D01*
X123870238Y-130758390D02*
X123679762Y-130758390D01*
X123679762Y-130758390D02*
X123584524Y-130806009D01*
X123584524Y-130806009D02*
X123536905Y-130853628D01*
X123536905Y-130853628D02*
X123489286Y-130948866D01*
X123489286Y-130948866D02*
X123489286Y-131139342D01*
X123489286Y-131139342D02*
X123536905Y-131234580D01*
X123536905Y-131234580D02*
X123584524Y-131282200D01*
X123584524Y-131282200D02*
X123679762Y-131329819D01*
X123679762Y-131329819D02*
X123870238Y-131329819D01*
X123870238Y-131329819D02*
X123965476Y-131282200D01*
X123965476Y-131282200D02*
X124013095Y-131234580D01*
X124013095Y-131234580D02*
X124060714Y-131139342D01*
X124060714Y-131139342D02*
X124060714Y-130948866D01*
X124060714Y-130948866D02*
X124013095Y-130853628D01*
X124013095Y-130853628D02*
X123965476Y-130806009D01*
X123965476Y-130806009D02*
X123870238Y-130758390D01*
X116059580Y-124642857D02*
X116107200Y-124690476D01*
X116107200Y-124690476D02*
X116154819Y-124833333D01*
X116154819Y-124833333D02*
X116154819Y-124928571D01*
X116154819Y-124928571D02*
X116107200Y-125071428D01*
X116107200Y-125071428D02*
X116011961Y-125166666D01*
X116011961Y-125166666D02*
X115916723Y-125214285D01*
X115916723Y-125214285D02*
X115726247Y-125261904D01*
X115726247Y-125261904D02*
X115583390Y-125261904D01*
X115583390Y-125261904D02*
X115392914Y-125214285D01*
X115392914Y-125214285D02*
X115297676Y-125166666D01*
X115297676Y-125166666D02*
X115202438Y-125071428D01*
X115202438Y-125071428D02*
X115154819Y-124928571D01*
X115154819Y-124928571D02*
X115154819Y-124833333D01*
X115154819Y-124833333D02*
X115202438Y-124690476D01*
X115202438Y-124690476D02*
X115250057Y-124642857D01*
X116154819Y-123690476D02*
X116154819Y-124261904D01*
X116154819Y-123976190D02*
X115154819Y-123976190D01*
X115154819Y-123976190D02*
X115297676Y-124071428D01*
X115297676Y-124071428D02*
X115392914Y-124166666D01*
X115392914Y-124166666D02*
X115440533Y-124261904D01*
X116154819Y-122738095D02*
X116154819Y-123309523D01*
X116154819Y-123023809D02*
X115154819Y-123023809D01*
X115154819Y-123023809D02*
X115297676Y-123119047D01*
X115297676Y-123119047D02*
X115392914Y-123214285D01*
X115392914Y-123214285D02*
X115440533Y-123309523D01*
X97333333Y-133359580D02*
X97285714Y-133407200D01*
X97285714Y-133407200D02*
X97142857Y-133454819D01*
X97142857Y-133454819D02*
X97047619Y-133454819D01*
X97047619Y-133454819D02*
X96904762Y-133407200D01*
X96904762Y-133407200D02*
X96809524Y-133311961D01*
X96809524Y-133311961D02*
X96761905Y-133216723D01*
X96761905Y-133216723D02*
X96714286Y-133026247D01*
X96714286Y-133026247D02*
X96714286Y-132883390D01*
X96714286Y-132883390D02*
X96761905Y-132692914D01*
X96761905Y-132692914D02*
X96809524Y-132597676D01*
X96809524Y-132597676D02*
X96904762Y-132502438D01*
X96904762Y-132502438D02*
X97047619Y-132454819D01*
X97047619Y-132454819D02*
X97142857Y-132454819D01*
X97142857Y-132454819D02*
X97285714Y-132502438D01*
X97285714Y-132502438D02*
X97333333Y-132550057D01*
X98285714Y-133454819D02*
X97714286Y-133454819D01*
X98000000Y-133454819D02*
X98000000Y-132454819D01*
X98000000Y-132454819D02*
X97904762Y-132597676D01*
X97904762Y-132597676D02*
X97809524Y-132692914D01*
X97809524Y-132692914D02*
X97714286Y-132740533D01*
X102204761Y-120154819D02*
X101871428Y-119678628D01*
X101633333Y-120154819D02*
X101633333Y-119154819D01*
X101633333Y-119154819D02*
X102014285Y-119154819D01*
X102014285Y-119154819D02*
X102109523Y-119202438D01*
X102109523Y-119202438D02*
X102157142Y-119250057D01*
X102157142Y-119250057D02*
X102204761Y-119345295D01*
X102204761Y-119345295D02*
X102204761Y-119488152D01*
X102204761Y-119488152D02*
X102157142Y-119583390D01*
X102157142Y-119583390D02*
X102109523Y-119631009D01*
X102109523Y-119631009D02*
X102014285Y-119678628D01*
X102014285Y-119678628D02*
X101633333Y-119678628D01*
X102490476Y-119154819D02*
X102823809Y-120154819D01*
X102823809Y-120154819D02*
X103157142Y-119154819D01*
X104014285Y-120154819D02*
X103442857Y-120154819D01*
X103728571Y-120154819D02*
X103728571Y-119154819D01*
X103728571Y-119154819D02*
X103633333Y-119297676D01*
X103633333Y-119297676D02*
X103538095Y-119392914D01*
X103538095Y-119392914D02*
X103442857Y-119440533D01*
X98662380Y-126124819D02*
X98995713Y-127124819D01*
X98995713Y-127124819D02*
X99329046Y-126124819D01*
X99662380Y-127124819D02*
X99662380Y-126458152D01*
X99662380Y-126124819D02*
X99614761Y-126172438D01*
X99614761Y-126172438D02*
X99662380Y-126220057D01*
X99662380Y-126220057D02*
X99709999Y-126172438D01*
X99709999Y-126172438D02*
X99662380Y-126124819D01*
X99662380Y-126124819D02*
X99662380Y-126220057D01*
X100567141Y-127124819D02*
X100567141Y-126124819D01*
X100567141Y-127077200D02*
X100471903Y-127124819D01*
X100471903Y-127124819D02*
X100281427Y-127124819D01*
X100281427Y-127124819D02*
X100186189Y-127077200D01*
X100186189Y-127077200D02*
X100138570Y-127029580D01*
X100138570Y-127029580D02*
X100090951Y-126934342D01*
X100090951Y-126934342D02*
X100090951Y-126648628D01*
X100090951Y-126648628D02*
X100138570Y-126553390D01*
X100138570Y-126553390D02*
X100186189Y-126505771D01*
X100186189Y-126505771D02*
X100281427Y-126458152D01*
X100281427Y-126458152D02*
X100471903Y-126458152D01*
X100471903Y-126458152D02*
X100567141Y-126505771D01*
X101424284Y-127077200D02*
X101329046Y-127124819D01*
X101329046Y-127124819D02*
X101138570Y-127124819D01*
X101138570Y-127124819D02*
X101043332Y-127077200D01*
X101043332Y-127077200D02*
X100995713Y-126981961D01*
X100995713Y-126981961D02*
X100995713Y-126601009D01*
X100995713Y-126601009D02*
X101043332Y-126505771D01*
X101043332Y-126505771D02*
X101138570Y-126458152D01*
X101138570Y-126458152D02*
X101329046Y-126458152D01*
X101329046Y-126458152D02*
X101424284Y-126505771D01*
X101424284Y-126505771D02*
X101471903Y-126601009D01*
X101471903Y-126601009D02*
X101471903Y-126696247D01*
X101471903Y-126696247D02*
X100995713Y-126791485D01*
X102043332Y-127124819D02*
X101948094Y-127077200D01*
X101948094Y-127077200D02*
X101900475Y-127029580D01*
X101900475Y-127029580D02*
X101852856Y-126934342D01*
X101852856Y-126934342D02*
X101852856Y-126648628D01*
X101852856Y-126648628D02*
X101900475Y-126553390D01*
X101900475Y-126553390D02*
X101948094Y-126505771D01*
X101948094Y-126505771D02*
X102043332Y-126458152D01*
X102043332Y-126458152D02*
X102186189Y-126458152D01*
X102186189Y-126458152D02*
X102281427Y-126505771D01*
X102281427Y-126505771D02*
X102329046Y-126553390D01*
X102329046Y-126553390D02*
X102376665Y-126648628D01*
X102376665Y-126648628D02*
X102376665Y-126934342D01*
X102376665Y-126934342D02*
X102329046Y-127029580D01*
X102329046Y-127029580D02*
X102281427Y-127077200D01*
X102281427Y-127077200D02*
X102186189Y-127124819D01*
X102186189Y-127124819D02*
X102043332Y-127124819D01*
X103709999Y-127124819D02*
X103614761Y-127077200D01*
X103614761Y-127077200D02*
X103567142Y-126981961D01*
X103567142Y-126981961D02*
X103567142Y-126124819D01*
X104471904Y-127077200D02*
X104376666Y-127124819D01*
X104376666Y-127124819D02*
X104186190Y-127124819D01*
X104186190Y-127124819D02*
X104090952Y-127077200D01*
X104090952Y-127077200D02*
X104043333Y-126981961D01*
X104043333Y-126981961D02*
X104043333Y-126601009D01*
X104043333Y-126601009D02*
X104090952Y-126505771D01*
X104090952Y-126505771D02*
X104186190Y-126458152D01*
X104186190Y-126458152D02*
X104376666Y-126458152D01*
X104376666Y-126458152D02*
X104471904Y-126505771D01*
X104471904Y-126505771D02*
X104519523Y-126601009D01*
X104519523Y-126601009D02*
X104519523Y-126696247D01*
X104519523Y-126696247D02*
X104043333Y-126791485D01*
X104852857Y-126458152D02*
X105090952Y-127124819D01*
X105090952Y-127124819D02*
X105329047Y-126458152D01*
X106090952Y-127077200D02*
X105995714Y-127124819D01*
X105995714Y-127124819D02*
X105805238Y-127124819D01*
X105805238Y-127124819D02*
X105710000Y-127077200D01*
X105710000Y-127077200D02*
X105662381Y-126981961D01*
X105662381Y-126981961D02*
X105662381Y-126601009D01*
X105662381Y-126601009D02*
X105710000Y-126505771D01*
X105710000Y-126505771D02*
X105805238Y-126458152D01*
X105805238Y-126458152D02*
X105995714Y-126458152D01*
X105995714Y-126458152D02*
X106090952Y-126505771D01*
X106090952Y-126505771D02*
X106138571Y-126601009D01*
X106138571Y-126601009D02*
X106138571Y-126696247D01*
X106138571Y-126696247D02*
X105662381Y-126791485D01*
X106710000Y-127124819D02*
X106614762Y-127077200D01*
X106614762Y-127077200D02*
X106567143Y-126981961D01*
X106567143Y-126981961D02*
X106567143Y-126124819D01*
X91833333Y-116109580D02*
X91785714Y-116157200D01*
X91785714Y-116157200D02*
X91642857Y-116204819D01*
X91642857Y-116204819D02*
X91547619Y-116204819D01*
X91547619Y-116204819D02*
X91404762Y-116157200D01*
X91404762Y-116157200D02*
X91309524Y-116061961D01*
X91309524Y-116061961D02*
X91261905Y-115966723D01*
X91261905Y-115966723D02*
X91214286Y-115776247D01*
X91214286Y-115776247D02*
X91214286Y-115633390D01*
X91214286Y-115633390D02*
X91261905Y-115442914D01*
X91261905Y-115442914D02*
X91309524Y-115347676D01*
X91309524Y-115347676D02*
X91404762Y-115252438D01*
X91404762Y-115252438D02*
X91547619Y-115204819D01*
X91547619Y-115204819D02*
X91642857Y-115204819D01*
X91642857Y-115204819D02*
X91785714Y-115252438D01*
X91785714Y-115252438D02*
X91833333Y-115300057D01*
X92214286Y-115300057D02*
X92261905Y-115252438D01*
X92261905Y-115252438D02*
X92357143Y-115204819D01*
X92357143Y-115204819D02*
X92595238Y-115204819D01*
X92595238Y-115204819D02*
X92690476Y-115252438D01*
X92690476Y-115252438D02*
X92738095Y-115300057D01*
X92738095Y-115300057D02*
X92785714Y-115395295D01*
X92785714Y-115395295D02*
X92785714Y-115490533D01*
X92785714Y-115490533D02*
X92738095Y-115633390D01*
X92738095Y-115633390D02*
X92166667Y-116204819D01*
X92166667Y-116204819D02*
X92785714Y-116204819D01*
X100083333Y-133454819D02*
X99750000Y-132978628D01*
X99511905Y-133454819D02*
X99511905Y-132454819D01*
X99511905Y-132454819D02*
X99892857Y-132454819D01*
X99892857Y-132454819D02*
X99988095Y-132502438D01*
X99988095Y-132502438D02*
X100035714Y-132550057D01*
X100035714Y-132550057D02*
X100083333Y-132645295D01*
X100083333Y-132645295D02*
X100083333Y-132788152D01*
X100083333Y-132788152D02*
X100035714Y-132883390D01*
X100035714Y-132883390D02*
X99988095Y-132931009D01*
X99988095Y-132931009D02*
X99892857Y-132978628D01*
X99892857Y-132978628D02*
X99511905Y-132978628D01*
X101035714Y-133454819D02*
X100464286Y-133454819D01*
X100750000Y-133454819D02*
X100750000Y-132454819D01*
X100750000Y-132454819D02*
X100654762Y-132597676D01*
X100654762Y-132597676D02*
X100559524Y-132692914D01*
X100559524Y-132692914D02*
X100464286Y-132740533D01*
%TO.C,D1*%
D11*
X80360000Y-130450000D02*
X77700000Y-130450000D01*
X80360000Y-132150000D02*
X77700000Y-132150000D01*
X80360000Y-132150000D02*
X80360000Y-130450000D01*
%TO.C,Y1*%
D12*
X124625000Y-122625000D02*
X124625000Y-122625000D01*
X124725000Y-122625000D02*
X124725000Y-122625000D01*
X124625000Y-122625000D02*
G75*
G02*
X124725000Y-122625000I50000J0D01*
G01*
X124725000Y-122625000D02*
G75*
G02*
X124625000Y-122625000I-50000J0D01*
G01*
%TO.C,C3*%
D11*
X91738748Y-119515000D02*
X92261252Y-119515000D01*
X91738748Y-120985000D02*
X92261252Y-120985000D01*
%TO.C,C7*%
X127790000Y-120863748D02*
X127790000Y-121386252D01*
X129260000Y-120863748D02*
X129260000Y-121386252D01*
%TO.C,R5*%
X74564564Y-123765000D02*
X74110436Y-123765000D01*
X74564564Y-125235000D02*
X74110436Y-125235000D01*
%TO.C,R7*%
X125040000Y-128060436D02*
X125040000Y-128514564D01*
X126510000Y-128060436D02*
X126510000Y-128514564D01*
%TO.C,C8*%
X87811252Y-120765000D02*
X87288748Y-120765000D01*
X87811252Y-122235000D02*
X87288748Y-122235000D01*
%TO.C,L1*%
X94390000Y-118412878D02*
X94390000Y-119212122D01*
X95510000Y-118412878D02*
X95510000Y-119212122D01*
%TO.C,R3*%
X87360436Y-130515000D02*
X87814564Y-130515000D01*
X87360436Y-131985000D02*
X87814564Y-131985000D01*
%TO.C,R2*%
X87814564Y-127265000D02*
X87360436Y-127265000D01*
X87814564Y-128735000D02*
X87360436Y-128735000D01*
%TO.C,J1*%
X109765000Y-117745000D02*
X109765000Y-117000000D01*
X110500000Y-117745000D02*
X109765000Y-117745000D01*
X111235000Y-116255000D02*
X116110000Y-116255000D01*
X111235000Y-116314435D02*
X111235000Y-116255000D01*
X111235000Y-117745000D02*
X111235000Y-117685565D01*
X111235000Y-117745000D02*
X116110000Y-117745000D01*
X116110000Y-116589970D02*
X116110000Y-116255000D01*
X116110000Y-117745000D02*
X116110000Y-117410030D01*
%TO.C,C4*%
X81765000Y-127061252D02*
X81765000Y-126538748D01*
X83235000Y-127061252D02*
X83235000Y-126538748D01*
%TO.C,C10*%
X110515000Y-124211252D02*
X110515000Y-123688748D01*
X111985000Y-124211252D02*
X111985000Y-123688748D01*
%TO.C,C13*%
X87811252Y-124015000D02*
X87288748Y-124015000D01*
X87811252Y-125485000D02*
X87288748Y-125485000D01*
%TO.C,L2*%
X74562122Y-118190000D02*
X73762878Y-118190000D01*
X74562122Y-119310000D02*
X73762878Y-119310000D01*
%TO.C,C5*%
X74038748Y-120765000D02*
X74561252Y-120765000D01*
X74038748Y-122235000D02*
X74561252Y-122235000D01*
%TO.C,J3*%
X72940000Y-134450000D02*
X72940000Y-131750000D01*
X75660000Y-131700000D02*
X75660000Y-132340000D01*
X75660000Y-133860000D02*
X76290000Y-133860000D01*
X75660000Y-134500000D02*
X75660000Y-133860000D01*
%TO.C,C6*%
X76765000Y-128038748D02*
X76765000Y-128561252D01*
X78235000Y-128038748D02*
X78235000Y-128561252D01*
%TO.C,C9*%
X94015000Y-130238748D02*
X94015000Y-130761252D01*
X95485000Y-130238748D02*
X95485000Y-130761252D01*
%TO.C,R6*%
X74564564Y-126765000D02*
X74110436Y-126765000D01*
X74564564Y-128235000D02*
X74110436Y-128235000D01*
%TO.C,U2*%
D13*
X91573600Y-124125800D02*
X91573600Y-124592459D01*
X91573600Y-127011941D02*
X91573600Y-127478600D01*
X91573600Y-127478600D02*
X92040259Y-127478600D01*
X92040259Y-124125800D02*
X91573600Y-124125800D01*
X94459741Y-127478600D02*
X94926400Y-127478600D01*
X94926400Y-124125800D02*
X94459741Y-124125800D01*
X94926400Y-124592459D02*
X94926400Y-124125800D01*
X94926400Y-127478600D02*
X94926400Y-127011941D01*
D14*
G36*
X95612200Y-126242700D02*
G01*
X95358200Y-126242700D01*
X95358200Y-125861699D01*
X95612200Y-125861699D01*
X95612200Y-126242700D01*
G37*
%TO.C,R4*%
D11*
X73960436Y-115515000D02*
X74414564Y-115515000D01*
X73960436Y-116985000D02*
X74414564Y-116985000D01*
%TO.C,U4*%
X110340000Y-129250000D02*
X110340000Y-133010000D01*
X110340000Y-133010000D02*
X111600000Y-133010000D01*
X117160000Y-129250000D02*
X117160000Y-133010000D01*
X117160000Y-133010000D02*
X115900000Y-133010000D01*
X117060000Y-127970000D02*
X117390000Y-127730000D01*
X117390000Y-128210000D01*
X117060000Y-127970000D01*
G36*
X117390000Y-128210000D02*
G01*
X117060000Y-127970000D01*
X117390000Y-127730000D01*
X117390000Y-128210000D01*
G37*
%TO.C,J2*%
X105340000Y-131600000D02*
X105340000Y-132240000D01*
X105340000Y-132240000D02*
X104710000Y-132240000D01*
X105340000Y-134400000D02*
X105340000Y-133760000D01*
X108060000Y-131650000D02*
X108060000Y-134350000D01*
%TO.C,U3*%
D15*
X82046050Y-121500000D02*
G75*
G02*
X78453950Y-121500000I-1796050J0D01*
G01*
X78453950Y-121500000D02*
G75*
G02*
X82046050Y-121500000I1796050J0D01*
G01*
D16*
X81621600Y-121500000D02*
G75*
G02*
X81418400Y-121500000I-101600J0D01*
G01*
X81418400Y-121500000D02*
G75*
G02*
X81621600Y-121500000I101600J0D01*
G01*
%TO.C,C12*%
D11*
X132040000Y-120913748D02*
X132040000Y-121436252D01*
X133510000Y-120913748D02*
X133510000Y-121436252D01*
%TO.C,U1*%
X129065000Y-123765000D02*
X132285000Y-123765000D01*
X129065000Y-123940000D02*
X129065000Y-123765000D01*
X129065000Y-126985000D02*
X129065000Y-126810000D01*
X132285000Y-123765000D02*
X132285000Y-123940000D01*
X132285000Y-126810000D02*
X132285000Y-126985000D01*
X132285000Y-126985000D02*
X129065000Y-126985000D01*
X128515000Y-123935000D02*
X128275000Y-123605000D01*
X128755000Y-123605000D01*
X128515000Y-123935000D01*
G36*
X128515000Y-123935000D02*
G01*
X128275000Y-123605000D01*
X128755000Y-123605000D01*
X128515000Y-123935000D01*
G37*
%TO.C,R8*%
X122540000Y-128514564D02*
X122540000Y-128060436D01*
X124010000Y-128514564D02*
X124010000Y-128060436D01*
%TO.C,C11*%
X113015000Y-124261252D02*
X113015000Y-123738748D01*
X114485000Y-124261252D02*
X114485000Y-123738748D01*
%TO.C,C1*%
X96765000Y-130188748D02*
X96765000Y-130711252D01*
X98235000Y-130188748D02*
X98235000Y-130711252D01*
%TO.C,RV1*%
X97835000Y-120480000D02*
X107585000Y-120480000D01*
X97835000Y-125530000D02*
X97835000Y-120480000D01*
X107585000Y-120480000D02*
X107585000Y-125530000D01*
X107585000Y-125530000D02*
X97835000Y-125530000D01*
%TO.C,C2*%
X92261252Y-116765000D02*
X91738748Y-116765000D01*
X92261252Y-118235000D02*
X91738748Y-118235000D01*
%TO.C,R1*%
X99515000Y-130185436D02*
X99515000Y-130639564D01*
X100985000Y-130185436D02*
X100985000Y-130639564D01*
%TD*%
M02*
