%TF.GenerationSoftware,KiCad,Pcbnew,10.0.3*%
%TF.CreationDate,2026-06-09T09:22:26-07:00*%
%TF.ProjectId,SchindlerRFBoard_V1,53636869-6e64-46c6-9572-5246426f6172,rev?*%
%TF.SameCoordinates,Original*%
%TF.FileFunction,Copper,L2,Bot*%
%TF.FilePolarity,Positive*%
%FSLAX46Y46*%
G04 Gerber Fmt 4.6, Leading zero omitted, Abs format (unit mm)*
G04 Created by KiCad (PCBNEW 10.0.3) date 2026-06-09 09:22:26*
%MOMM*%
%LPD*%
G01*
G04 APERTURE LIST*
%TA.AperFunction,ComponentPad*%
%ADD10R,0.850000X0.850000*%
%TD*%
%TA.AperFunction,ComponentPad*%
%ADD11C,0.850000*%
%TD*%
%TA.AperFunction,ComponentPad*%
%ADD12C,1.440000*%
%TD*%
%TA.AperFunction,ViaPad*%
%ADD13C,0.889000*%
%TD*%
%TA.AperFunction,ViaPad*%
%ADD14C,0.600000*%
%TD*%
%TA.AperFunction,ViaPad*%
%ADD15C,0.508000*%
%TD*%
%TA.AperFunction,Conductor*%
%ADD16C,0.200000*%
%TD*%
G04 APERTURE END LIST*
D10*
%TO.P,J1,1,Pin_1_1*%
%TO.N,+12V*%
X110500000Y-117000000D03*
D11*
%TO.P,J1,2,Pin_2_2*%
%TO.N,+3V3*%
X111500000Y-117000000D03*
%TO.P,J1,3,Pin_3_3*%
%TO.N,/SDA*%
X112500000Y-117000000D03*
%TO.P,J1,4,Pin_4_4*%
%TO.N,/SCL*%
X113500000Y-117000000D03*
%TO.P,J1,5,Pin_5_5*%
%TO.N,GND*%
X114500000Y-117000000D03*
%TO.P,J1,6,Pin_6_6*%
X115500000Y-117000000D03*
%TD*%
D12*
%TO.P,RV1,1,1_1*%
%TO.N,+5V*%
X105250000Y-123000000D03*
%TO.P,RV1,2,2_2*%
%TO.N,Net-(R1-Pad2)*%
X102710000Y-123000000D03*
%TO.P,RV1,3,3_3*%
%TO.N,GND*%
X100170000Y-123000000D03*
%TD*%
D13*
%TO.N,GND*%
X100000000Y-114500000D03*
X129300000Y-114500000D03*
X112600000Y-132200000D03*
X96700000Y-119900000D03*
X119600000Y-122600000D03*
X130700000Y-126300000D03*
X74300000Y-126000000D03*
X80000000Y-137400000D03*
X125300000Y-117100000D03*
X80200000Y-121500000D03*
X110100000Y-137500000D03*
X133900000Y-128900000D03*
X90000000Y-114500000D03*
X78600000Y-123100000D03*
X116600000Y-131000000D03*
X93000000Y-129700000D03*
X90500000Y-124200000D03*
X120000000Y-114500000D03*
X120000000Y-137600000D03*
X100000000Y-137500000D03*
X122200000Y-117500000D03*
X103700000Y-134200000D03*
X111800000Y-120000000D03*
X114900000Y-132200000D03*
X127000000Y-123400000D03*
X130700000Y-124400000D03*
X98900000Y-128200000D03*
X72700000Y-133100000D03*
X84100000Y-117500000D03*
X79400000Y-129600000D03*
X115600000Y-123800000D03*
X130600000Y-120200000D03*
X134000000Y-118200000D03*
X104000000Y-124600000D03*
X103200000Y-131800000D03*
X112600000Y-129800000D03*
X130000000Y-137500000D03*
X117000000Y-134500000D03*
X85400000Y-129600000D03*
X124400000Y-134400000D03*
X84300000Y-126700000D03*
X108300000Y-133000000D03*
X76600000Y-131600000D03*
X114900000Y-118200000D03*
X110000000Y-114500000D03*
X90000000Y-137300000D03*
X76600000Y-117500000D03*
X89900000Y-121500000D03*
X74200000Y-120000000D03*
X80000000Y-114600000D03*
X93600000Y-126100000D03*
X95900000Y-134200000D03*
X87500000Y-123100000D03*
X109100000Y-119900000D03*
X114900000Y-129800000D03*
X110900000Y-131000000D03*
X92873900Y-125426100D03*
D14*
%TO.N,/VMID*%
X95750000Y-127500000D03*
X93500000Y-123000000D03*
D15*
X91500000Y-123000000D03*
D14*
X95750000Y-124000000D03*
X93000000Y-128500000D03*
%TD*%
%TO.N,/VMID*%
D16*
X94000000Y-127500000D02*
X93000000Y-128500000D01*
X93500000Y-123000000D02*
X91500000Y-123000000D01*
X95750000Y-124000000D02*
X94500000Y-124000000D01*
X95750000Y-124000000D02*
X95750000Y-127500000D01*
X95750000Y-127500000D02*
X94000000Y-127500000D01*
X94500000Y-124000000D02*
X93500000Y-123000000D01*
%TD*%
%TA.AperFunction,Conductor*%
%TO.N,GND*%
G36*
X134442539Y-113820185D02*
G01*
X134488294Y-113872989D01*
X134499500Y-113924500D01*
X134499500Y-138075500D01*
X134479815Y-138142539D01*
X134427011Y-138188294D01*
X134375500Y-138199500D01*
X70624500Y-138199500D01*
X70557461Y-138179815D01*
X70511706Y-138127011D01*
X70500500Y-138075500D01*
X70500500Y-122925683D01*
X90745500Y-122925683D01*
X90745500Y-123074316D01*
X90774493Y-123220072D01*
X90774495Y-123220080D01*
X90831371Y-123357391D01*
X90913939Y-123480964D01*
X90913945Y-123480971D01*
X91019028Y-123586054D01*
X91019035Y-123586060D01*
X91142608Y-123668628D01*
X91142609Y-123668628D01*
X91142610Y-123668629D01*
X91279920Y-123725505D01*
X91425683Y-123754499D01*
X91425687Y-123754500D01*
X91425688Y-123754500D01*
X91574313Y-123754500D01*
X91574314Y-123754499D01*
X91720080Y-123725505D01*
X91857390Y-123668629D01*
X91928077Y-123621397D01*
X91994754Y-123600520D01*
X91996967Y-123600500D01*
X92920234Y-123600500D01*
X92987273Y-123620185D01*
X92989125Y-123621398D01*
X93120814Y-123709390D01*
X93120827Y-123709397D01*
X93229717Y-123754500D01*
X93266503Y-123769737D01*
X93331147Y-123782595D01*
X93421849Y-123800638D01*
X93483760Y-123833023D01*
X93485336Y-123834571D01*
X94131284Y-124480520D01*
X94131286Y-124480521D01*
X94131290Y-124480524D01*
X94268209Y-124559573D01*
X94268216Y-124559577D01*
X94420943Y-124600501D01*
X94420945Y-124600501D01*
X94586654Y-124600501D01*
X94586670Y-124600500D01*
X95025500Y-124600500D01*
X95092539Y-124620185D01*
X95138294Y-124672989D01*
X95149500Y-124724500D01*
X95149500Y-126775500D01*
X95129815Y-126842539D01*
X95077011Y-126888294D01*
X95025500Y-126899500D01*
X94086670Y-126899500D01*
X94086654Y-126899499D01*
X94079058Y-126899499D01*
X93920943Y-126899499D01*
X93844579Y-126919961D01*
X93768214Y-126940423D01*
X93768209Y-126940426D01*
X93631290Y-127019475D01*
X93631282Y-127019481D01*
X92985339Y-127665425D01*
X92924016Y-127698910D01*
X92921850Y-127699361D01*
X92766508Y-127730261D01*
X92766498Y-127730264D01*
X92620827Y-127790602D01*
X92620814Y-127790609D01*
X92489711Y-127878210D01*
X92489707Y-127878213D01*
X92378213Y-127989707D01*
X92378210Y-127989711D01*
X92290609Y-128120814D01*
X92290602Y-128120827D01*
X92230264Y-128266498D01*
X92230261Y-128266510D01*
X92199500Y-128421153D01*
X92199500Y-128578846D01*
X92230261Y-128733489D01*
X92230264Y-128733501D01*
X92290602Y-128879172D01*
X92290609Y-128879185D01*
X92378210Y-129010288D01*
X92378213Y-129010292D01*
X92489707Y-129121786D01*
X92489711Y-129121789D01*
X92620814Y-129209390D01*
X92620827Y-129209397D01*
X92766498Y-129269735D01*
X92766503Y-129269737D01*
X92921153Y-129300499D01*
X92921156Y-129300500D01*
X92921158Y-129300500D01*
X93078844Y-129300500D01*
X93078845Y-129300499D01*
X93233497Y-129269737D01*
X93379179Y-129209394D01*
X93510289Y-129121789D01*
X93621789Y-129010289D01*
X93709394Y-128879179D01*
X93769737Y-128733497D01*
X93789113Y-128636085D01*
X93800638Y-128578150D01*
X93833023Y-128516239D01*
X93834514Y-128514720D01*
X94212417Y-128136819D01*
X94273740Y-128103334D01*
X94300098Y-128100500D01*
X95170234Y-128100500D01*
X95237273Y-128120185D01*
X95239125Y-128121398D01*
X95370814Y-128209390D01*
X95370827Y-128209397D01*
X95508683Y-128266498D01*
X95516503Y-128269737D01*
X95671153Y-128300499D01*
X95671156Y-128300500D01*
X95671158Y-128300500D01*
X95828844Y-128300500D01*
X95828845Y-128300499D01*
X95983497Y-128269737D01*
X96129179Y-128209394D01*
X96260289Y-128121789D01*
X96371789Y-128010289D01*
X96459394Y-127879179D01*
X96519737Y-127733497D01*
X96550500Y-127578842D01*
X96550500Y-127421158D01*
X96550500Y-127421155D01*
X96550499Y-127421153D01*
X96519738Y-127266510D01*
X96519737Y-127266503D01*
X96519735Y-127266498D01*
X96459397Y-127120827D01*
X96459390Y-127120814D01*
X96371398Y-126989125D01*
X96350520Y-126922447D01*
X96350500Y-126920234D01*
X96350500Y-124579765D01*
X96370185Y-124512726D01*
X96371398Y-124510874D01*
X96459390Y-124379185D01*
X96459390Y-124379184D01*
X96459394Y-124379179D01*
X96519737Y-124233497D01*
X96550500Y-124078842D01*
X96550500Y-123921158D01*
X96550500Y-123921155D01*
X96550499Y-123921153D01*
X96525426Y-123795103D01*
X96519737Y-123766503D01*
X96479197Y-123668629D01*
X96459397Y-123620827D01*
X96459390Y-123620814D01*
X96371789Y-123489711D01*
X96371786Y-123489707D01*
X96260292Y-123378213D01*
X96260288Y-123378210D01*
X96129185Y-123290609D01*
X96129172Y-123290602D01*
X95983501Y-123230264D01*
X95983489Y-123230261D01*
X95828845Y-123199500D01*
X95828842Y-123199500D01*
X95671158Y-123199500D01*
X95671155Y-123199500D01*
X95516510Y-123230261D01*
X95516498Y-123230264D01*
X95370827Y-123290602D01*
X95370814Y-123290609D01*
X95239125Y-123378602D01*
X95172447Y-123399480D01*
X95170234Y-123399500D01*
X94800098Y-123399500D01*
X94733059Y-123379815D01*
X94712417Y-123363181D01*
X94334573Y-122985337D01*
X94301088Y-122924014D01*
X94300637Y-122921847D01*
X94297084Y-122903984D01*
X98950000Y-122903984D01*
X98950000Y-123096015D01*
X98980040Y-123285684D01*
X99039383Y-123468321D01*
X99126561Y-123639415D01*
X99147798Y-123668646D01*
X99770000Y-123046445D01*
X99770000Y-123052661D01*
X99797259Y-123154394D01*
X99849920Y-123245606D01*
X99924394Y-123320080D01*
X100015606Y-123372741D01*
X100117339Y-123400000D01*
X100123554Y-123400000D01*
X99501351Y-124022200D01*
X99501352Y-124022201D01*
X99530577Y-124043434D01*
X99701678Y-124130616D01*
X99884315Y-124189959D01*
X100073985Y-124220000D01*
X100266015Y-124220000D01*
X100455684Y-124189959D01*
X100638321Y-124130616D01*
X100809419Y-124043436D01*
X100838646Y-124022201D01*
X100838646Y-124022200D01*
X100216447Y-123400000D01*
X100222661Y-123400000D01*
X100324394Y-123372741D01*
X100415606Y-123320080D01*
X100490080Y-123245606D01*
X100542741Y-123154394D01*
X100570000Y-123052661D01*
X100570000Y-123046446D01*
X101192200Y-123668646D01*
X101192201Y-123668646D01*
X101213436Y-123639419D01*
X101300616Y-123468319D01*
X101321805Y-123403108D01*
X101361242Y-123345433D01*
X101425600Y-123318234D01*
X101494447Y-123330148D01*
X101545923Y-123377392D01*
X101557667Y-123403108D01*
X101578916Y-123468505D01*
X101578917Y-123468506D01*
X101578918Y-123468509D01*
X101666135Y-123639681D01*
X101779055Y-123795102D01*
X101914898Y-123930945D01*
X102070319Y-124043865D01*
X102138965Y-124078842D01*
X102241493Y-124131083D01*
X102332845Y-124160764D01*
X102424199Y-124190447D01*
X102613945Y-124220500D01*
X102613946Y-124220500D01*
X102806054Y-124220500D01*
X102806055Y-124220500D01*
X102995801Y-124190447D01*
X103178509Y-124131082D01*
X103349681Y-124043865D01*
X103505102Y-123930945D01*
X103640945Y-123795102D01*
X103753865Y-123639681D01*
X103841082Y-123468509D01*
X103841144Y-123468319D01*
X103862069Y-123403919D01*
X103901506Y-123346243D01*
X103965864Y-123319044D01*
X104034711Y-123330958D01*
X104086187Y-123378202D01*
X104097931Y-123403919D01*
X104118915Y-123468504D01*
X104205999Y-123639415D01*
X104206135Y-123639681D01*
X104319055Y-123795102D01*
X104454898Y-123930945D01*
X104610319Y-124043865D01*
X104678965Y-124078842D01*
X104781493Y-124131083D01*
X104872845Y-124160764D01*
X104964199Y-124190447D01*
X105153945Y-124220500D01*
X105153946Y-124220500D01*
X105346054Y-124220500D01*
X105346055Y-124220500D01*
X105535801Y-124190447D01*
X105718509Y-124131082D01*
X105889681Y-124043865D01*
X106045102Y-123930945D01*
X106180945Y-123795102D01*
X106293865Y-123639681D01*
X106381082Y-123468509D01*
X106440447Y-123285801D01*
X106470500Y-123096055D01*
X106470500Y-122903945D01*
X106440447Y-122714199D01*
X106402332Y-122596891D01*
X106381083Y-122531493D01*
X106321186Y-122413939D01*
X106293865Y-122360319D01*
X106180945Y-122204898D01*
X106045102Y-122069055D01*
X105889681Y-121956135D01*
X105718506Y-121868916D01*
X105535802Y-121809553D01*
X105440928Y-121794526D01*
X105346055Y-121779500D01*
X105153945Y-121779500D01*
X105090696Y-121789517D01*
X104964197Y-121809553D01*
X104781493Y-121868916D01*
X104610318Y-121956135D01*
X104580502Y-121977798D01*
X104454898Y-122069055D01*
X104454896Y-122069057D01*
X104454895Y-122069057D01*
X104319057Y-122204895D01*
X104319057Y-122204896D01*
X104319055Y-122204898D01*
X104300626Y-122230264D01*
X104206135Y-122360318D01*
X104118916Y-122531493D01*
X104097931Y-122596081D01*
X104058494Y-122653756D01*
X103994135Y-122680955D01*
X103925289Y-122669041D01*
X103873813Y-122621797D01*
X103862069Y-122596081D01*
X103841083Y-122531493D01*
X103781186Y-122413939D01*
X103753865Y-122360319D01*
X103640945Y-122204898D01*
X103505102Y-122069055D01*
X103349681Y-121956135D01*
X103178506Y-121868916D01*
X102995802Y-121809553D01*
X102900928Y-121794526D01*
X102806055Y-121779500D01*
X102613945Y-121779500D01*
X102550696Y-121789517D01*
X102424197Y-121809553D01*
X102241493Y-121868916D01*
X102070318Y-121956135D01*
X102040502Y-121977798D01*
X101914898Y-122069055D01*
X101914896Y-122069057D01*
X101914895Y-122069057D01*
X101779057Y-122204895D01*
X101779057Y-122204896D01*
X101779055Y-122204898D01*
X101760626Y-122230264D01*
X101666135Y-122360318D01*
X101578917Y-122531492D01*
X101557667Y-122596892D01*
X101518229Y-122654567D01*
X101453870Y-122681765D01*
X101385024Y-122669850D01*
X101333548Y-122622605D01*
X101321805Y-122596891D01*
X101300616Y-122531680D01*
X101213434Y-122360577D01*
X101192201Y-122331352D01*
X101192200Y-122331351D01*
X100570000Y-122953552D01*
X100570000Y-122947339D01*
X100542741Y-122845606D01*
X100490080Y-122754394D01*
X100415606Y-122679920D01*
X100324394Y-122627259D01*
X100222661Y-122600000D01*
X100216447Y-122600000D01*
X100838646Y-121977798D01*
X100809415Y-121956561D01*
X100638321Y-121869383D01*
X100455684Y-121810040D01*
X100266015Y-121780000D01*
X100073985Y-121780000D01*
X99884315Y-121810040D01*
X99701678Y-121869383D01*
X99530578Y-121956564D01*
X99501352Y-121977798D01*
X99501351Y-121977798D01*
X100123554Y-122600000D01*
X100117339Y-122600000D01*
X100015606Y-122627259D01*
X99924394Y-122679920D01*
X99849920Y-122754394D01*
X99797259Y-122845606D01*
X99770000Y-122947339D01*
X99770000Y-122953553D01*
X99147798Y-122331351D01*
X99147798Y-122331352D01*
X99126564Y-122360578D01*
X99039383Y-122531678D01*
X98980040Y-122714315D01*
X98950000Y-122903984D01*
X94297084Y-122903984D01*
X94297076Y-122903945D01*
X94269737Y-122766503D01*
X94248072Y-122714199D01*
X94209397Y-122620827D01*
X94209390Y-122620814D01*
X94121789Y-122489711D01*
X94121786Y-122489707D01*
X94010292Y-122378213D01*
X94010288Y-122378210D01*
X93879185Y-122290609D01*
X93879172Y-122290602D01*
X93733501Y-122230264D01*
X93733489Y-122230261D01*
X93578845Y-122199500D01*
X93578842Y-122199500D01*
X93421158Y-122199500D01*
X93421155Y-122199500D01*
X93266510Y-122230261D01*
X93266498Y-122230264D01*
X93120827Y-122290602D01*
X93120814Y-122290609D01*
X92989125Y-122378602D01*
X92922447Y-122399480D01*
X92920234Y-122399500D01*
X91996967Y-122399500D01*
X91929928Y-122379815D01*
X91928111Y-122378625D01*
X91857390Y-122331371D01*
X91857391Y-122331371D01*
X91857389Y-122331370D01*
X91720080Y-122274495D01*
X91720072Y-122274493D01*
X91574316Y-122245500D01*
X91574312Y-122245500D01*
X91425688Y-122245500D01*
X91425683Y-122245500D01*
X91279927Y-122274493D01*
X91279919Y-122274495D01*
X91142608Y-122331371D01*
X91019035Y-122413939D01*
X91019028Y-122413945D01*
X90913945Y-122519028D01*
X90913939Y-122519035D01*
X90831371Y-122642608D01*
X90774495Y-122779919D01*
X90774493Y-122779927D01*
X90745500Y-122925683D01*
X70500500Y-122925683D01*
X70500500Y-116527135D01*
X109574500Y-116527135D01*
X109574500Y-117472870D01*
X109574501Y-117472876D01*
X109580908Y-117532483D01*
X109631202Y-117667328D01*
X109631206Y-117667335D01*
X109717452Y-117782544D01*
X109717455Y-117782547D01*
X109832664Y-117868793D01*
X109832671Y-117868797D01*
X109967517Y-117919091D01*
X109967516Y-117919091D01*
X109974444Y-117919835D01*
X110027127Y-117925500D01*
X110972872Y-117925499D01*
X111032483Y-117919091D01*
X111127768Y-117883551D01*
X111197457Y-117878568D01*
X111218551Y-117885173D01*
X111230042Y-117889933D01*
X111230044Y-117889933D01*
X111230046Y-117889934D01*
X111408843Y-117925500D01*
X111408846Y-117925500D01*
X111591156Y-117925500D01*
X111711445Y-117901572D01*
X111769958Y-117889933D01*
X111938389Y-117820167D01*
X111938394Y-117820163D01*
X111941541Y-117818482D01*
X111943386Y-117818097D01*
X111944018Y-117817836D01*
X111944067Y-117817955D01*
X112009943Y-117804236D01*
X112058459Y-117818482D01*
X112061615Y-117820169D01*
X112230037Y-117889931D01*
X112230042Y-117889933D01*
X112230046Y-117889933D01*
X112230047Y-117889934D01*
X112408843Y-117925500D01*
X112408846Y-117925500D01*
X112591156Y-117925500D01*
X112711445Y-117901572D01*
X112769958Y-117889933D01*
X112938389Y-117820167D01*
X112938394Y-117820163D01*
X112941541Y-117818482D01*
X112943386Y-117818097D01*
X112944018Y-117817836D01*
X112944067Y-117817955D01*
X113009943Y-117804236D01*
X113058459Y-117818482D01*
X113061615Y-117820169D01*
X113230037Y-117889931D01*
X113230042Y-117889933D01*
X113230046Y-117889933D01*
X113230047Y-117889934D01*
X113408843Y-117925500D01*
X113408846Y-117925500D01*
X113591156Y-117925500D01*
X113711445Y-117901572D01*
X113769958Y-117889933D01*
X113938389Y-117820167D01*
X113938399Y-117820160D01*
X113942061Y-117818203D01*
X114010462Y-117803950D01*
X114058992Y-117818198D01*
X114061854Y-117819728D01*
X114230182Y-117889451D01*
X114230194Y-117889454D01*
X114408890Y-117924999D01*
X114408894Y-117925000D01*
X114591106Y-117925000D01*
X114591109Y-117924999D01*
X114769805Y-117889454D01*
X114769817Y-117889451D01*
X114938148Y-117819726D01*
X114941538Y-117817915D01*
X114943519Y-117817502D01*
X114943781Y-117817394D01*
X114943801Y-117817443D01*
X115009939Y-117803667D01*
X115058462Y-117817915D01*
X115061851Y-117819726D01*
X115230182Y-117889451D01*
X115230194Y-117889454D01*
X115408890Y-117924999D01*
X115408894Y-117925000D01*
X115591106Y-117925000D01*
X115591109Y-117924999D01*
X115769805Y-117889454D01*
X115769813Y-117889452D01*
X115938151Y-117819724D01*
X115938154Y-117819723D01*
X115954947Y-117808500D01*
X115954948Y-117808500D01*
X115410904Y-117264457D01*
X115389195Y-117224701D01*
X115450272Y-117250000D01*
X115549728Y-117250000D01*
X115641614Y-117211940D01*
X115711940Y-117141614D01*
X115750000Y-117049728D01*
X115750000Y-116999999D01*
X115853553Y-116999999D01*
X115853553Y-117000001D01*
X116308500Y-117454948D01*
X116308500Y-117454947D01*
X116319723Y-117438154D01*
X116319724Y-117438151D01*
X116389452Y-117269813D01*
X116389454Y-117269805D01*
X116424999Y-117091109D01*
X116425000Y-117091106D01*
X116425000Y-116908894D01*
X116424999Y-116908890D01*
X116389454Y-116730194D01*
X116389451Y-116730182D01*
X116319728Y-116561855D01*
X116319725Y-116561849D01*
X116308500Y-116545050D01*
X115853553Y-116999999D01*
X115750000Y-116999999D01*
X115750000Y-116950272D01*
X115711940Y-116858386D01*
X115641614Y-116788060D01*
X115549728Y-116750000D01*
X115450272Y-116750000D01*
X115383959Y-116777467D01*
X115410904Y-116735542D01*
X115954947Y-116191498D01*
X115938145Y-116180271D01*
X115769817Y-116110548D01*
X115769805Y-116110545D01*
X115591109Y-116075000D01*
X115408890Y-116075000D01*
X115230194Y-116110545D01*
X115230186Y-116110547D01*
X115061840Y-116180278D01*
X115058447Y-116182092D01*
X115056466Y-116182504D01*
X115056221Y-116182606D01*
X115056201Y-116182559D01*
X114990044Y-116196331D01*
X114941553Y-116182092D01*
X114938159Y-116180278D01*
X114769813Y-116110547D01*
X114769805Y-116110545D01*
X114591109Y-116075000D01*
X114408890Y-116075000D01*
X114230194Y-116110545D01*
X114230186Y-116110547D01*
X114061839Y-116180278D01*
X114058972Y-116181811D01*
X114057300Y-116182158D01*
X114056221Y-116182606D01*
X114056136Y-116182401D01*
X113990568Y-116196045D01*
X113942086Y-116181808D01*
X113938390Y-116179833D01*
X113769962Y-116110068D01*
X113769952Y-116110065D01*
X113591156Y-116074500D01*
X113591154Y-116074500D01*
X113408846Y-116074500D01*
X113408844Y-116074500D01*
X113230047Y-116110065D01*
X113230041Y-116110067D01*
X113061605Y-116179835D01*
X113058444Y-116181525D01*
X113056600Y-116181908D01*
X113055984Y-116182164D01*
X113055935Y-116182047D01*
X112990040Y-116195761D01*
X112941556Y-116181525D01*
X112938394Y-116179835D01*
X112769958Y-116110067D01*
X112769952Y-116110065D01*
X112591156Y-116074500D01*
X112591154Y-116074500D01*
X112408846Y-116074500D01*
X112408844Y-116074500D01*
X112230047Y-116110065D01*
X112230041Y-116110067D01*
X112061605Y-116179835D01*
X112058444Y-116181525D01*
X112056600Y-116181908D01*
X112055984Y-116182164D01*
X112055935Y-116182047D01*
X111990040Y-116195761D01*
X111941556Y-116181525D01*
X111938394Y-116179835D01*
X111769958Y-116110067D01*
X111769952Y-116110065D01*
X111591156Y-116074500D01*
X111591154Y-116074500D01*
X111408846Y-116074500D01*
X111408844Y-116074500D01*
X111230047Y-116110065D01*
X111230034Y-116110069D01*
X111218545Y-116114828D01*
X111149076Y-116122294D01*
X111127765Y-116116447D01*
X111123424Y-116114828D01*
X111092604Y-116103332D01*
X111032481Y-116080908D01*
X111032483Y-116080908D01*
X110972883Y-116074501D01*
X110972881Y-116074500D01*
X110972873Y-116074500D01*
X110972864Y-116074500D01*
X110027129Y-116074500D01*
X110027123Y-116074501D01*
X109967516Y-116080908D01*
X109832671Y-116131202D01*
X109832664Y-116131206D01*
X109717455Y-116217452D01*
X109717452Y-116217455D01*
X109631206Y-116332664D01*
X109631202Y-116332671D01*
X109580908Y-116467517D01*
X109574501Y-116527116D01*
X109574500Y-116527135D01*
X70500500Y-116527135D01*
X70500500Y-113924500D01*
X70520185Y-113857461D01*
X70572989Y-113811706D01*
X70624500Y-113800500D01*
X134375500Y-113800500D01*
X134442539Y-113820185D01*
G37*
%TD.AperFunction*%
%TD*%
M02*
