%TF.GenerationSoftware,KiCad,Pcbnew,10.0.3*%
%TF.CreationDate,2026-06-09T09:22:26-07:00*%
%TF.ProjectId,SchindlerRFBoard_V1,53636869-6e64-46c6-9572-5246426f6172,rev?*%
%TF.SameCoordinates,Original*%
%TF.FileFunction,Paste,Top*%
%TF.FilePolarity,Positive*%
%FSLAX46Y46*%
G04 Gerber Fmt 4.6, Leading zero omitted, Abs format (unit mm)*
G04 Created by KiCad (PCBNEW 10.0.3) date 2026-06-09 09:22:26*
%MOMM*%
%LPD*%
G01*
G04 APERTURE LIST*
G04 Aperture macros list*
%AMRoundRect*
0 Rectangle with rounded corners*
0 $1 Rounding radius*
0 $2 $3 $4 $5 $6 $7 $8 $9 X,Y pos of 4 corners*
0 Add a 4 corners polygon primitive as box body*
4,1,4,$2,$3,$4,$5,$6,$7,$8,$9,$2,$3,0*
0 Add four circle primitives for the rounded corners*
1,1,$1+$1,$2,$3*
1,1,$1+$1,$4,$5*
1,1,$1+$1,$6,$7*
1,1,$1+$1,$8,$9*
0 Add four rect primitives between the rounded corners*
20,1,$1+$1,$2,$3,$4,$5,0*
20,1,$1+$1,$4,$5,$6,$7,0*
20,1,$1+$1,$6,$7,$8,$9,0*
20,1,$1+$1,$8,$9,$2,$3,0*%
G04 Aperture macros list end*
%ADD10RoundRect,0.112500X0.187500X0.112500X-0.187500X0.112500X-0.187500X-0.112500X0.187500X-0.112500X0*%
%ADD11R,1.400000X1.200000*%
%ADD12RoundRect,0.250000X-0.250000X-0.475000X0.250000X-0.475000X0.250000X0.475000X-0.250000X0.475000X0*%
%ADD13RoundRect,0.250000X-0.475000X0.250000X-0.475000X-0.250000X0.475000X-0.250000X0.475000X0.250000X0*%
%ADD14RoundRect,0.250000X0.262500X0.450000X-0.262500X0.450000X-0.262500X-0.450000X0.262500X-0.450000X0*%
%ADD15RoundRect,0.250000X-0.450000X0.262500X-0.450000X-0.262500X0.450000X-0.262500X0.450000X0.262500X0*%
%ADD16RoundRect,0.250000X0.250000X0.475000X-0.250000X0.475000X-0.250000X-0.475000X0.250000X-0.475000X0*%
%ADD17RoundRect,0.218750X-0.381250X0.218750X-0.381250X-0.218750X0.381250X-0.218750X0.381250X0.218750X0*%
%ADD18RoundRect,0.250000X-0.262500X-0.450000X0.262500X-0.450000X0.262500X0.450000X-0.262500X0.450000X0*%
%ADD19RoundRect,0.250000X0.475000X-0.250000X0.475000X0.250000X-0.475000X0.250000X-0.475000X-0.250000X0*%
%ADD20RoundRect,0.218750X0.218750X0.381250X-0.218750X0.381250X-0.218750X-0.381250X0.218750X-0.381250X0*%
%ADD21RoundRect,0.250000X0.275000X0.250000X-0.275000X0.250000X-0.275000X-0.250000X0.275000X-0.250000X0*%
%ADD22RoundRect,0.250000X0.850000X0.275000X-0.850000X0.275000X-0.850000X-0.275000X0.850000X-0.275000X0*%
%ADD23R,0.812800X0.254000*%
%ADD24R,0.254000X0.812800*%
%ADD25R,1.651000X1.651000*%
%ADD26RoundRect,0.375000X-0.375000X0.625000X-0.375000X-0.625000X0.375000X-0.625000X0.375000X0.625000X0*%
%ADD27RoundRect,0.500000X-1.400000X0.500000X-1.400000X-0.500000X1.400000X-0.500000X1.400000X0.500000X0*%
%ADD28RoundRect,0.250000X-0.275000X-0.250000X0.275000X-0.250000X0.275000X0.250000X-0.275000X0.250000X0*%
%ADD29RoundRect,0.250000X-0.850000X-0.275000X0.850000X-0.275000X0.850000X0.275000X-0.850000X0.275000X0*%
%ADD30R,1.828800X1.016000*%
%ADD31R,1.016000X1.828800*%
%ADD32RoundRect,0.087500X-0.662500X-0.087500X0.662500X-0.087500X0.662500X0.087500X-0.662500X0.087500X0*%
%ADD33RoundRect,0.250000X0.450000X-0.262500X0.450000X0.262500X-0.450000X0.262500X-0.450000X-0.262500X0*%
G04 APERTURE END LIST*
D10*
%TO.C,D1*%
X79800000Y-131300000D03*
X77700000Y-131300000D03*
%TD*%
D11*
%TO.C,Y1*%
X123525000Y-122625000D03*
X121325000Y-122625000D03*
X121325000Y-124325000D03*
X123525000Y-124325000D03*
%TD*%
D12*
%TO.C,C3*%
X91050000Y-120250000D03*
X92950000Y-120250000D03*
%TD*%
D13*
%TO.C,C7*%
X128525000Y-120175000D03*
X128525000Y-122075000D03*
%TD*%
D14*
%TO.C,R5*%
X75250000Y-124500000D03*
X73425000Y-124500000D03*
%TD*%
D15*
%TO.C,R7*%
X125775000Y-127375000D03*
X125775000Y-129200000D03*
%TD*%
D16*
%TO.C,C8*%
X88500000Y-121500000D03*
X86600000Y-121500000D03*
%TD*%
D17*
%TO.C,L1*%
X94950000Y-117750000D03*
X94950000Y-119875000D03*
%TD*%
D18*
%TO.C,R3*%
X86675000Y-131250000D03*
X88500000Y-131250000D03*
%TD*%
D14*
%TO.C,R2*%
X88500000Y-128000000D03*
X86675000Y-128000000D03*
%TD*%
D19*
%TO.C,C4*%
X82500000Y-127750000D03*
X82500000Y-125850000D03*
%TD*%
%TO.C,C10*%
X111250000Y-124900000D03*
X111250000Y-123000000D03*
%TD*%
D16*
%TO.C,C13*%
X88500000Y-124750000D03*
X86600000Y-124750000D03*
%TD*%
D20*
%TO.C,L2*%
X75225000Y-118750000D03*
X73100000Y-118750000D03*
%TD*%
D12*
%TO.C,C5*%
X73350000Y-121500000D03*
X75250000Y-121500000D03*
%TD*%
D21*
%TO.C,J3*%
X75825000Y-133100000D03*
D22*
X74300000Y-134575000D03*
X74300000Y-131625000D03*
%TD*%
D13*
%TO.C,C6*%
X77500000Y-127350000D03*
X77500000Y-129250000D03*
%TD*%
%TO.C,C9*%
X94750000Y-129550000D03*
X94750000Y-131450000D03*
%TD*%
D14*
%TO.C,R6*%
X75250000Y-127500000D03*
X73425000Y-127500000D03*
%TD*%
D23*
%TO.C,U2*%
X91802200Y-125052199D03*
X91802200Y-125552200D03*
X91802200Y-126052200D03*
X91802200Y-126552201D03*
D24*
X92499999Y-127250000D03*
X93000000Y-127250000D03*
X93500000Y-127250000D03*
X94000001Y-127250000D03*
D23*
X94697800Y-126552201D03*
X94697800Y-126052200D03*
X94697800Y-125552200D03*
X94697800Y-125052199D03*
D24*
X94000001Y-124354400D03*
X93500000Y-124354400D03*
X93000000Y-124354400D03*
X92499999Y-124354400D03*
D25*
X93250000Y-125802200D03*
%TD*%
D18*
%TO.C,R4*%
X73275000Y-116250000D03*
X75100000Y-116250000D03*
%TD*%
D26*
%TO.C,U4*%
X116050000Y-127950000D03*
X113750000Y-127950000D03*
D27*
X113750000Y-134250000D03*
D26*
X111450000Y-127950000D03*
%TD*%
D28*
%TO.C,J2*%
X105175000Y-133000000D03*
D29*
X106700000Y-131525000D03*
X106700000Y-134475000D03*
%TD*%
D30*
%TO.C,U3*%
X82320100Y-121500000D03*
D31*
X80250000Y-119429900D03*
D30*
X78179900Y-121500000D03*
D31*
X80250000Y-123570100D03*
%TD*%
D13*
%TO.C,C12*%
X132775000Y-120225000D03*
X132775000Y-122125000D03*
%TD*%
D32*
%TO.C,U1*%
X128575000Y-124375000D03*
X128575000Y-124875000D03*
X128575000Y-125375000D03*
X128575000Y-125875000D03*
X128575000Y-126375000D03*
X132775000Y-126375000D03*
X132775000Y-125875000D03*
X132775000Y-125375000D03*
X132775000Y-124875000D03*
X132775000Y-124375000D03*
%TD*%
D33*
%TO.C,R8*%
X123275000Y-129200000D03*
X123275000Y-127375000D03*
%TD*%
D19*
%TO.C,C11*%
X113750000Y-124950000D03*
X113750000Y-123050000D03*
%TD*%
D13*
%TO.C,C1*%
X97500000Y-129500000D03*
X97500000Y-131400000D03*
%TD*%
D16*
%TO.C,C2*%
X92950000Y-117500000D03*
X91050000Y-117500000D03*
%TD*%
D15*
%TO.C,R1*%
X100250000Y-129500000D03*
X100250000Y-131325000D03*
%TD*%
M02*
